<svg width="27" height="27" viewBox="0 0 27 27" fill="none" xmlns="http://www.w3.org/2000/svg">
<path d="M5.90625 9C5.90625 8.17949 6.2322 7.39258 6.81239 6.81239C7.39258 6.2322 8.17949 5.90625 9 5.90625C9.82051 5.90625 10.6074 6.2322 11.1876 6.81239C11.7678 7.39258 12.0938 8.17949 12.0938 9C12.0938 9.82051 11.7678 10.6074 11.1876 11.1876C10.6074 11.7678 9.82051 12.0938 9 12.0938C8.17949 12.0938 7.39258 11.7678 6.81239 11.1876C6.2322 10.6074 5.90625 9.82051 5.90625 9ZM9 4.5C7.80653 4.5 6.66193 4.97411 5.81802 5.81802C4.97411 6.66193 4.5 7.80653 4.5 9C4.5 10.1935 4.97411 11.3381 5.81802 12.182C6.66193 13.0259 7.80653 13.5 9 13.5C10.1935 13.5 11.3381 13.0259 12.182 12.182C13.0259 11.3381 13.5 10.1935 13.5 9C13.5 7.80653 13.0259 6.66193 12.182 5.81802C11.3381 4.97411 10.1935 4.5 9 4.5ZM17.1562 10.125C17.1562 9.60286 17.3637 9.1021 17.7329 8.73288C18.1021 8.36367 18.6029 8.15625 19.125 8.15625C19.6471 8.15625 20.1479 8.36367 20.5171 8.73288C20.8863 9.1021 21.0938 9.60286 21.0938 10.125C21.0938 10.6471 20.8863 11.1479 20.5171 11.5171C20.1479 11.8863 19.6471 12.0938 19.125 12.0938C18.6029 12.0938 18.1021 11.8863 17.7329 11.5171C17.3637 11.1479 17.1562 10.6471 17.1562 10.125ZM19.125 6.75C18.2299 6.75 17.3714 7.10558 16.7385 7.73851C16.1056 8.37145 15.75 9.22989 15.75 10.125C15.75 11.0201 16.1056 11.8786 16.7385 12.5115C17.3714 13.1444 18.2299 13.5 19.125 13.5C20.0201 13.5 20.8786 13.1444 21.5115 12.5115C22.1444 11.8786 22.5 11.0201 22.5 10.125C22.5 9.22989 22.1444 8.37145 21.5115 7.73851C20.8786 7.10558 20.0201 6.75 19.125 6.75ZM19.125 21.9375C17.901 21.9375 16.9189 21.7395 16.1348 21.4189L16.2394 21.2839C16.5173 20.9177 16.7304 20.5509 16.8936 20.2033C17.4673 20.403 18.1963 20.5312 19.1244 20.5312C21.5297 20.5312 22.5968 19.6689 23.0974 18.9388C23.3825 18.5193 23.5611 18.0366 23.6177 17.5326C23.6209 17.4996 23.6232 17.4666 23.6244 17.4336V17.2969C23.6244 16.9087 23.3094 16.5938 22.9213 16.5938H17.3604C17.2449 16.0739 17.0024 15.5907 16.6545 15.1875H22.9219C23.4813 15.1875 24.0178 15.4097 24.4134 15.8053C24.809 16.2009 25.0312 16.7374 25.0312 17.2969V17.4639L25.0296 17.5123C25.0273 17.5517 25.0239 17.6046 25.0183 17.6693C24.9385 18.4094 24.6775 19.1184 24.2584 19.7336C23.4568 20.9008 21.9223 21.9375 19.1239 21.9375H19.125ZM3.79688 15.1875C3.23743 15.1875 2.70091 15.4097 2.30532 15.8053C1.90974 16.2009 1.6875 16.7374 1.6875 17.2969V18.0298L1.68975 18.0844C1.692 18.1294 1.6965 18.189 1.70437 18.2632C1.72069 18.4106 1.75162 18.6131 1.81237 18.8539C1.97358 19.488 2.26051 20.0833 2.65613 20.6044C3.64444 21.9071 5.52713 23.0625 9 23.0625C12.4734 23.0625 14.3561 21.9071 15.3433 20.6044C15.7392 20.0831 16.0263 19.4877 16.1876 18.8533C16.2484 18.6131 16.2793 18.4106 16.2956 18.2627C16.3041 18.1853 16.3098 18.1076 16.3125 18.0298V17.2969C16.3125 17.0199 16.2579 16.7456 16.1519 16.4897C16.0459 16.2337 15.8906 16.0012 15.6947 15.8053C15.4988 15.6094 15.2663 15.4541 15.0103 15.3481C14.7544 15.2421 14.4801 15.1875 14.2031 15.1875H3.79688ZM3.09431 18.0135L3.09375 17.9955V17.2969C3.09375 16.9087 3.40875 16.5938 3.79688 16.5938H14.2031C14.5913 16.5938 14.9062 16.9087 14.9062 17.2969V17.9955L14.9057 18.0135C14.8929 18.1805 14.8658 18.3461 14.8247 18.5085C14.7095 18.9601 14.5049 19.384 14.2228 19.755C13.5579 20.6325 12.1359 21.6562 9 21.6562C5.86406 21.6562 4.44206 20.6325 3.77719 19.755C3.49518 19.3842 3.29051 18.9605 3.17531 18.5091C3.13416 18.3465 3.10706 18.1807 3.09431 18.0135Z" fill="#D3B890"/>
</svg>
