<svg width="18" height="27" viewBox="0 0 18 27" fill="none" xmlns="http://www.w3.org/2000/svg">
<g clip-path="url(#clip0_1_193)">
<path d="M7.2675 26.0544C1.1376 16.8819 0 15.9413 0 12.5715C0 7.95548 3.6261 4.21423 8.1 4.21423C12.5739 4.21423 16.2 7.95548 16.2 12.5715C16.2 15.9413 15.0624 16.8801 8.9325 26.0507C8.83941 26.189 8.71531 26.3021 8.57077 26.3803C8.42622 26.4585 8.26551 26.4996 8.10229 26.4999C7.93907 26.5003 7.77818 26.46 7.63331 26.3824C7.48844 26.3049 7.36387 26.1923 7.2702 26.0544L7.2684 26.0507L7.2675 26.0544Z" fill="#1B7C31"/>
</g>
<defs>
<clipPath id="clip0_1_193">
<rect width="18" height="26" fill="white" transform="translate(0 0.5)"/>
</clipPath>
</defs>
</svg>
