<svg width="10" height="15" viewBox="0 0 10 15" fill="none" xmlns="http://www.w3.org/2000/svg">
<g clip-path="url(#clip0_1_110)">
<path d="M3.88085 12.8258L3.82015 13.0684C3.4641 12.5569 3.14523 12.1025 2.85957 11.6954C2.07189 10.573 1.53662 9.81019 1.1702 9.20074C0.889917 8.73456 0.727271 8.38726 0.631387 8.06342C0.536641 7.74343 0.5 7.42243 0.5 7.00004C0.5 4.79066 2.29065 3 4.5 3C6.70935 3 8.5 4.79066 8.5 7.00004C8.5 7.42244 8.46336 7.74335 8.36862 8.06321C8.27275 8.38691 8.11012 8.73404 7.82984 9.20004C7.46374 9.80873 6.9291 10.5704 6.14257 11.6909C5.69781 12.3245 5.17249 13.0729 4.55156 13.9733C4.5458 13.9815 4.53818 13.9881 4.52931 13.9928C4.52032 13.9975 4.51033 14 4.50019 14C4.49004 14 4.48004 13.9976 4.47103 13.9929C4.46759 13.9911 4.46433 13.989 4.4613 13.9867L3.88085 12.8258Z" stroke="white"/>
</g>
<defs>
<clipPath id="clip0_1_110">
<rect width="10" height="14" fill="white" transform="translate(0 0.5)"/>
</clipPath>
</defs>
</svg>
