<svg width="74" height="52" viewBox="0 0 74 52" fill="none" xmlns="http://www.w3.org/2000/svg">
<g filter="url(#filter0_d_1_83)">
<rect x="5" y="5" width="64" height="42" rx="10" fill="white"/>
</g>
<path d="M25 25C24.4477 25 24 25.4477 24 26C24 26.5523 24.4477 27 25 27L25 25ZM48.7071 26.7071C49.0976 26.3166 49.0976 25.6834 48.7071 25.2929L42.3431 18.9289C41.9526 18.5384 41.3195 18.5384 40.9289 18.9289C40.5384 19.3195 40.5384 19.9526 40.9289 20.3431L46.5858 26L40.9289 31.6569C40.5384 32.0474 40.5384 32.6805 40.9289 33.0711C41.3195 33.4616 41.9526 33.4616 42.3431 33.0711L48.7071 26.7071ZM25 27L48 27L48 25L25 25L25 27Z" fill="#189148"/>
<defs>
<filter id="filter0_d_1_83" x="0" y="0" width="74" height="52" filterUnits="userSpaceOnUse" color-interpolation-filters="sRGB">
<feFlood flood-opacity="0" result="BackgroundImageFix"/>
<feColorMatrix in="SourceAlpha" type="matrix" values="0 0 0 0 0 0 0 0 0 0 0 0 0 0 0 0 0 0 127 0" result="hardAlpha"/>
<feOffset/>
<feGaussianBlur stdDeviation="2.5"/>
<feComposite in2="hardAlpha" operator="out"/>
<feColorMatrix type="matrix" values="0 0 0 0 0.1625 0 0 0 0 0.158438 0 0 0 0 0.158438 0 0 0 0.25 0"/>
<feBlend mode="normal" in2="BackgroundImageFix" result="effect1_dropShadow_1_83"/>
<feBlend mode="normal" in="SourceGraphic" in2="effect1_dropShadow_1_83" result="shape"/>
</filter>
</defs>
</svg>
