<svg width="29" height="29" viewBox="0 0 29 29" fill="none" xmlns="http://www.w3.org/2000/svg">
<path d="M23.8287 14.6541C23.737 14.6008 23.6361 14.5498 23.5319 14.5C23.6361 14.4501 23.737 14.3992 23.8287 14.3459C24.3482 14.0506 24.8041 13.6554 25.1703 13.1831C25.5364 12.7108 25.8055 12.1708 25.9621 11.5941C26.1186 11.0174 26.1596 10.4154 26.0826 9.82278C26.0055 9.23019 25.8121 8.65868 25.5133 8.14116C25.2145 7.62364 24.8163 7.17034 24.3416 6.80735C23.8669 6.44436 23.325 6.17884 22.7473 6.0261C22.1696 5.87336 21.5673 5.8364 20.9753 5.91736C20.3832 5.99831 19.813 6.19558 19.2975 6.4978C19.2057 6.55104 19.1106 6.61108 19.0165 6.67792C19.0256 6.56464 19.0313 6.45135 19.0313 6.33807C19.0313 5.13631 18.5539 3.98377 17.7041 3.134C16.8543 2.28422 15.7018 1.80682 14.5 1.80682C13.2982 1.80682 12.1457 2.28422 11.2959 3.134C10.4462 3.98377 9.96875 5.13631 9.96875 6.33807C9.96875 6.44456 9.96875 6.55784 9.98348 6.67792C9.88946 6.61335 9.7943 6.55104 9.70254 6.4978C9.18702 6.19558 8.61681 5.99831 8.02474 5.91736C7.43266 5.8364 6.83042 5.87336 6.25269 6.0261C5.67496 6.17884 5.13315 6.44436 4.65845 6.80735C4.18375 7.17034 3.78554 7.62364 3.48674 8.14116C3.18794 8.65868 2.99446 9.23019 2.91744 9.82278C2.84041 10.4154 2.88136 11.0174 3.03794 11.5941C3.19451 12.1708 3.46361 12.7108 3.82974 13.1831C4.19587 13.6554 4.65181 14.0506 5.17129 14.3459C5.26305 14.3992 5.36387 14.4501 5.46809 14.5C5.36387 14.5498 5.26305 14.6008 5.17129 14.6541C4.65181 14.9494 4.19587 15.3446 3.82974 15.8169C3.46361 16.2892 3.19451 16.8292 3.03794 17.4059C2.88136 17.9826 2.84041 18.5846 2.91744 19.1772C2.99446 19.7698 3.18794 20.3413 3.48674 20.8588C3.78554 21.3763 4.18375 21.8296 4.65845 22.1926C5.13315 22.5556 5.67496 22.8211 6.25269 22.9739C6.83042 23.1266 7.43266 23.1636 8.02474 23.0826C8.61681 23.0017 9.18702 22.8044 9.70254 22.5022C9.7943 22.4489 9.88946 22.3889 9.98348 22.3221C9.97442 22.4353 9.96875 22.5486 9.96875 22.6562C9.96875 23.858 10.4462 25.0105 11.2959 25.8603C12.1457 26.7101 13.2982 27.1875 14.5 27.1875C15.7018 27.1875 16.8543 26.7101 17.7041 25.8603C18.5539 25.0105 19.0313 23.858 19.0313 22.6562C19.0313 22.5498 19.0256 22.4365 19.0165 22.3221C19.1106 22.3866 19.2057 22.4489 19.2975 22.5022C19.9839 22.8998 20.763 23.1093 21.5563 23.1094C21.9549 23.1088 22.3517 23.0563 22.7367 22.953C23.6024 22.721 24.3798 22.2375 24.9706 21.5636C25.5615 20.8898 25.9393 20.0558 26.0562 19.1673C26.173 18.2787 26.0238 17.3754 25.6273 16.5717C25.2309 15.7679 24.6049 15.0998 23.8287 14.6518V14.6541ZM14.5 17.6719C13.8727 17.6719 13.2594 17.4858 12.7378 17.1373C12.2162 16.7888 11.8096 16.2934 11.5696 15.7138C11.3295 15.1342 11.2667 14.4965 11.3891 13.8812C11.5115 13.2659 11.8136 12.7007 12.2572 12.2571C12.7007 11.8135 13.2659 11.5114 13.8812 11.3891C14.4965 11.2667 15.1342 11.3295 15.7138 11.5696C16.2934 11.8096 16.7888 12.2162 17.1373 12.7378C17.4859 13.2594 17.6719 13.8727 17.6719 14.5C17.6719 15.3412 17.3377 16.148 16.7429 16.7428C16.148 17.3377 15.3412 17.6719 14.5 17.6719Z" fill="#075C37"/>
</svg>
