<svg width="52" height="52" viewBox="0 0 52 52" fill="none" xmlns="http://www.w3.org/2000/svg">
<rect x="0.5" y="0.5" width="51" height="51" stroke="#B96B1B"/>
<path d="M12 25C11.4477 25 11 25.4477 11 26C11 26.5523 11.4477 27 12 27V25ZM40.7071 26.7071C41.0976 26.3166 41.0976 25.6834 40.7071 25.2929L34.3431 18.9289C33.9526 18.5384 33.3195 18.5384 32.9289 18.9289C32.5384 19.3195 32.5384 19.9526 32.9289 20.3431L38.5858 26L32.9289 31.6569C32.5384 32.0474 32.5384 32.6805 32.9289 33.0711C33.3195 33.4616 33.9526 33.4616 34.3431 33.0711L40.7071 26.7071ZM12 27H40V25H12V27Z" fill="#B96B1B"/>
</svg>
