<svg xmlns="http://www.w3.org/2000/svg" xmlns:xlink="http://www.w3.org/1999/xlink">
 
  <symbol id="person" width="32" height="32" viewBox="0 0 32 32" fill="none" xmlns="http://www.w3.org/2000/svg">
    <path d="M10.7999 16C12.179 16 13.5017 15.4521 14.4769 14.4769C15.452 13.5017 15.9999 12.1791 15.9999 10.8C15.9999 9.42085 15.452 8.09821 14.4769 7.12302C13.5017 6.14783 12.179 5.59998 10.7999 5.59998C9.42078 5.59998 8.09814 6.14783 7.12295 7.12302C6.14776 8.09821 5.5999 9.42085 5.5999 10.8C5.5999 12.1791 6.14776 13.5017 7.12295 14.4769C8.09814 15.4521 9.42078 16 10.7999 16ZM19.8991 24.232C20.7471 24.5792 21.8255 24.8 23.1983 24.8C29.5983 24.8 29.5983 20 29.5983 20C29.5983 19.3637 29.3457 18.7535 28.8959 18.3035C28.4462 17.8534 27.8361 17.6004 27.1999 17.6H19.7951C20.4239 18.3616 20.8015 19.336 20.8015 20.4V20.9696C20.7982 21.1043 20.7891 21.2388 20.7743 21.3728C20.6663 22.3725 20.3683 23.3427 19.8991 24.232ZM27.1999 12C27.1999 13.0608 26.7785 14.0783 26.0283 14.8284C25.2782 15.5785 24.2608 16 23.1999 16C22.139 16 21.1216 15.5785 20.3715 14.8284C19.6213 14.0783 19.1999 13.0608 19.1999 12C19.1999 10.9391 19.6213 9.92169 20.3715 9.17155C21.1216 8.4214 22.139 7.99998 23.1999 7.99998C24.2608 7.99998 25.2782 8.4214 26.0283 9.17155C26.7785 9.92169 27.1999 10.9391 27.1999 12ZM2.3999 20.8C2.3999 19.9513 2.73704 19.1374 3.33716 18.5372C3.93728 17.9371 4.75121 17.6 5.5999 17.6H15.9999C16.8486 17.6 17.6625 17.9371 18.2626 18.5372C18.8628 19.1374 19.1999 19.9513 19.1999 20.8C19.1999 20.8 19.1999 27.2 10.7999 27.2C2.3999 27.2 2.3999 20.8 2.3999 20.8Z" fill="#BF6838"/>
  </symbol>

</svg>
