<svg viewBox="0 0 17 8" fill="none" xmlns="http://www.w3.org/2000/svg">
<path d="M16 3.5C16.2761 3.5 16.5 3.72386 16.5 4C16.5 4.27614 16.2761 4.5 16 4.5L16 3.5ZM0.646445 4.35355C0.451183 4.15829 0.451183 3.84171 0.646445 3.64645L3.82843 0.464466C4.02369 0.269204 4.34027 0.269204 4.53553 0.464466C4.73079 0.659728 4.73079 0.976311 4.53553 1.17157L1.70711 4L4.53553 6.82843C4.73079 7.02369 4.73079 7.34027 4.53553 7.53553C4.34027 7.7308 4.02369 7.7308 3.82843 7.53553L0.646445 4.35355ZM16 4.5L0.999999 4.5L0.999999 3.5L16 3.5L16 4.5Z" fill="#D8A646" fill-opacity="0.44"/>
</svg>
