<svg width="56" height="56" viewBox="0 0 56 56" fill="none" xmlns="http://www.w3.org/2000/svg">
<circle cx="28" cy="28" r="27.5" stroke="#D1D4D9"/>
<path d="M29 20C29 19.4477 28.5523 19 28 19C27.4477 19 27 19.4477 27 20L29 20ZM27.2929 40.7071C27.6834 41.0976 28.3166 41.0976 28.7071 40.7071L35.0711 34.3431C35.4616 33.9526 35.4616 33.3195 35.0711 32.9289C34.6805 32.5384 34.0474 32.5384 33.6569 32.9289L28 38.5858L22.3431 32.9289C21.9526 32.5384 21.3195 32.5384 20.9289 32.9289C20.5384 33.3195 20.5384 33.9526 20.9289 34.3431L27.2929 40.7071ZM27 20L27 40L29 40L29 20L27 20Z" fill="#D1D4D9"/>
</svg>
