<svg width="250" height="158" viewBox="0 0 250 158" fill="none" xmlns="http://www.w3.org/2000/svg">
<g clip-path="url(#clip0_1_7)">
<path fill-rule="evenodd" clip-rule="evenodd" d="M231.854 48.1289C236.93 62.1404 229.688 77.621 215.68 82.7053C201.673 87.7893 186.201 80.5519 181.127 66.5414C176.051 52.5286 183.293 37.0493 197.301 31.9637C211.31 26.8807 226.78 34.1171 231.854 48.1289ZM214.882 80.4995C227.671 75.8573 234.283 61.7225 229.648 48.9291C225.015 36.1367 210.89 29.5283 198.101 34.1705C185.31 38.8131 178.698 52.9465 183.332 65.7399C187.965 78.5324 202.091 85.1408 214.882 80.4995Z" fill="#04005E"/>
<path d="M214.888 80.4979C227.679 75.8554 234.291 61.7219 229.657 48.9285C225.022 36.1364 210.898 29.5277 198.107 34.1702C185.318 38.8112 178.706 52.9459 183.339 65.7396C187.973 78.5317 202.099 85.1401 214.888 80.4979Z" fill="url(#paint0_linear_1_7)"/>
<path d="M210.082 67.2633C215.564 65.2745 218.397 59.2157 216.41 53.7338C214.425 48.2516 208.371 45.4192 202.89 47.4093C197.408 49.3981 194.575 55.4569 196.56 60.9391C198.547 66.421 204.601 69.2534 210.082 67.2633Z" fill="url(#paint1_linear_1_7)"/>
<path fill-rule="evenodd" clip-rule="evenodd" d="M209.842 66.6013C214.958 64.7446 217.603 59.092 215.75 53.9751C213.896 48.857 208.246 46.2133 203.13 48.07C198.014 49.928 195.369 55.5806 197.223 60.6988C199.077 65.8156 204.727 68.4593 209.842 66.6013ZM210.082 67.2633C215.563 65.2748 218.397 59.2157 216.412 53.7335C214.426 48.2513 208.371 45.4192 202.89 47.4093C197.41 49.3978 194.575 55.4569 196.56 60.9391C198.547 66.421 204.601 69.2534 210.082 67.2633Z" fill="url(#paint2_linear_1_7)"/>
<path d="M208.09 61.7475C209.258 61.3252 210.212 60.4543 210.739 59.3265C211.267 58.1986 211.326 56.9061 210.903 55.7332C210.476 54.5619 209.604 53.6078 208.476 53.0807C207.349 52.5537 206.06 52.4968 204.893 52.9226C203.724 53.3447 202.771 54.2154 202.244 55.3429C201.717 56.4705 201.658 57.7627 202.08 58.9352C202.507 60.1065 203.379 61.0606 204.506 61.5878C205.633 62.1149 206.922 62.1719 208.089 61.7462L208.09 61.7475Z" fill="url(#paint3_linear_1_7)"/>
<path fill-rule="evenodd" clip-rule="evenodd" d="M195.708 38.6369C185.567 44.7341 182.288 58.0222 188.383 68.3185C194.478 78.6149 207.64 82.0199 217.781 75.9241C227.924 69.8292 231.203 56.5398 225.108 46.2435C219.011 35.9474 205.849 32.5424 195.708 38.6369ZM187.971 68.5671C181.738 58.0374 185.091 44.4506 195.46 38.219C205.829 31.9858 219.287 35.4679 225.52 45.9962C231.753 56.5233 228.399 70.1101 218.03 76.3433C207.662 82.5762 194.203 79.0957 187.971 68.5671Z" fill="url(#paint4_radial_1_7)"/>
<path fill-rule="evenodd" clip-rule="evenodd" d="M195.708 38.6369C185.567 44.7341 182.288 58.0222 188.383 68.3185C194.478 78.6149 207.64 82.0199 217.781 75.9241C227.924 69.8292 231.203 56.5398 225.108 46.2435C219.011 35.9474 205.849 32.5424 195.708 38.6369ZM187.971 68.5671C181.738 58.0374 185.091 44.4506 195.46 38.219C205.829 31.9858 219.287 35.4679 225.52 45.9962C231.753 56.5233 228.399 70.1101 218.03 76.3433C207.662 82.5762 194.203 79.0957 187.971 68.5671Z" fill="url(#paint5_radial_1_7)"/>
<path fill-rule="evenodd" clip-rule="evenodd" d="M196.7 40.3129C187.47 45.8615 184.486 57.9555 190.034 67.3253C195.581 76.6968 207.56 79.7965 216.79 74.2478C226.019 68.7008 229.005 56.6065 223.457 47.2366C217.909 37.8655 205.93 34.7643 196.7 40.3129ZM189.62 67.5742C183.936 57.972 186.994 45.5781 196.452 39.8949C205.909 34.2093 218.185 37.3859 223.869 46.9881C229.553 56.5903 226.495 68.983 217.037 74.6674C207.58 80.3518 195.306 77.1761 189.62 67.5742Z" fill="url(#paint6_radial_1_7)"/>
<path fill-rule="evenodd" clip-rule="evenodd" d="M196.7 40.3129C187.47 45.8615 184.486 57.9555 190.034 67.3253C195.581 76.6968 207.56 79.7965 216.79 74.2478C226.019 68.7008 229.005 56.6065 223.457 47.2366C217.909 37.8655 205.93 34.7643 196.7 40.3129ZM189.62 67.5742C183.936 57.972 186.994 45.5781 196.452 39.8949C205.909 34.2093 218.185 37.3859 223.869 46.9881C229.553 56.5903 226.495 68.983 217.037 74.6674C207.58 80.3518 195.306 77.1761 189.62 67.5742Z" fill="url(#paint7_radial_1_7)"/>
<path fill-rule="evenodd" clip-rule="evenodd" d="M197.692 41.9888C189.374 46.9887 186.684 57.8888 191.684 66.3338C196.684 74.7785 207.48 77.573 215.798 72.5732C224.116 67.5734 226.805 56.6736 221.806 48.2286C216.807 39.7836 206.01 36.989 197.692 41.9888ZM191.271 66.5823C186.135 57.905 188.899 46.7065 197.444 41.5709C205.991 36.4337 217.082 39.3027 222.218 47.98C227.355 56.6571 224.592 67.8543 216.045 72.9914C207.5 78.1283 196.408 75.258 191.271 66.5823Z" fill="url(#paint8_radial_1_7)"/>
<path fill-rule="evenodd" clip-rule="evenodd" d="M197.692 41.9888C189.374 46.9887 186.684 57.8888 191.684 66.3338C196.684 74.7785 207.48 77.573 215.798 72.5732C224.116 67.5734 226.805 56.6736 221.806 48.2286C216.807 39.7836 206.01 36.989 197.692 41.9888ZM191.271 66.5823C186.135 57.905 188.899 46.7065 197.444 41.5709C205.991 36.4337 217.082 39.3027 222.218 47.98C227.355 56.6571 224.592 67.8543 216.045 72.9914C207.5 78.1283 196.408 75.258 191.271 66.5823Z" fill="url(#paint9_radial_1_7)"/>
<path fill-rule="evenodd" clip-rule="evenodd" d="M198.685 43.6648C191.278 48.1174 188.882 57.822 193.335 65.3418C197.787 72.8617 207.399 75.3485 214.806 70.8972C222.212 66.4449 224.607 56.7403 220.156 49.2189C215.704 41.7003 206.09 39.2125 198.685 43.6648ZM192.922 65.5891C188.333 57.8382 190.802 47.8352 198.436 43.2456C206.071 38.6572 215.98 41.2207 220.568 48.9716C225.157 56.7238 222.688 66.7271 215.053 71.3168C207.42 75.9035 197.511 73.34 192.922 65.5891Z" fill="url(#paint10_radial_1_7)"/>
<path fill-rule="evenodd" clip-rule="evenodd" d="M198.685 43.6648C191.278 48.1174 188.882 57.822 193.335 65.3418C197.787 72.8617 207.399 75.3485 214.806 70.8972C222.212 66.4449 224.607 56.7403 220.156 49.2189C215.704 41.7003 206.09 39.2125 198.685 43.6648ZM192.922 65.5891C188.333 57.8382 190.802 47.8352 198.436 43.2456C206.071 38.6572 215.98 41.2207 220.568 48.9716C225.157 56.7238 222.688 66.7271 215.053 71.3168C207.42 75.9035 197.511 73.34 192.922 65.5891Z" fill="url(#paint11_radial_1_7)"/>
<path fill-rule="evenodd" clip-rule="evenodd" d="M199.677 45.3407C193.182 49.2445 191.082 57.7549 194.986 64.3499C198.889 70.9436 207.319 73.125 213.814 69.2213C220.309 65.3175 222.409 56.807 218.505 50.2121C214.601 43.6171 206.171 41.4373 199.677 45.3407ZM194.573 64.5972C190.531 57.7715 192.706 48.9623 199.429 44.9215C206.151 40.8807 214.878 43.1388 218.918 49.9635C222.958 56.7895 220.785 65.5997 214.062 69.6405C207.339 73.6816 198.613 71.4232 194.573 64.5972Z" fill="url(#paint12_radial_1_7)"/>
<path fill-rule="evenodd" clip-rule="evenodd" d="M199.677 45.3407C193.182 49.2445 191.082 57.7549 194.986 64.3499C198.889 70.9436 207.319 73.125 213.814 69.2213C220.309 65.3175 222.409 56.807 218.505 50.2121C214.601 43.6171 206.171 41.4373 199.677 45.3407ZM194.573 64.5972C190.531 57.7715 192.706 48.9623 199.429 44.9215C206.151 40.8807 214.878 43.1388 218.918 49.9635C222.958 56.7895 220.785 65.5997 214.062 69.6405C207.339 73.6816 198.613 71.4232 194.573 64.5972Z" fill="url(#paint13_radial_1_7)"/>
<path fill-rule="evenodd" clip-rule="evenodd" d="M200.669 47.0167C195.085 50.3732 193.28 57.6882 196.635 63.3571C199.992 69.0269 207.239 70.9015 212.822 67.5453C218.405 64.1891 220.211 56.8738 216.854 51.204C213.499 45.5351 206.252 43.6605 200.669 47.0167ZM196.223 63.6056C192.729 57.7048 194.609 50.091 200.421 46.5975C206.231 43.1055 213.774 45.0559 217.267 50.9567C220.76 56.8563 218.88 64.4713 213.07 67.9646C207.258 71.4569 199.715 69.5052 196.223 63.6056Z" fill="url(#paint14_radial_1_7)"/>
<path fill-rule="evenodd" clip-rule="evenodd" d="M200.669 47.0167C195.085 50.3732 193.28 57.6882 196.635 63.3571C199.992 69.0269 207.239 70.9015 212.822 67.5453C218.405 64.1891 220.211 56.8738 216.854 51.204C213.499 45.5351 206.252 43.6605 200.669 47.0167ZM196.223 63.6056C192.729 57.7048 194.609 50.091 200.421 46.5975C206.231 43.1055 213.774 45.0559 217.267 50.9567C220.76 56.8563 218.88 64.4713 213.07 67.9646C207.258 71.4569 199.715 69.5052 196.223 63.6056Z" fill="url(#paint15_radial_1_7)"/>
<path d="M207.531 60.2011C208.29 59.9265 208.909 59.3606 209.252 58.6278C209.595 57.895 209.634 57.0553 209.36 56.293C209.082 55.5318 208.515 54.9118 207.783 54.5691C207.05 54.2265 206.212 54.1893 205.453 54.4658C204.694 54.7401 204.074 55.3059 203.731 56.0388C203.388 56.7717 203.35 57.6116 203.625 58.3738C203.762 58.7508 203.972 59.0972 204.242 59.393C204.513 59.6889 204.839 59.9285 205.202 60.0982C205.564 60.2679 205.957 60.3643 206.356 60.382C206.756 60.3996 207.155 60.3382 207.531 60.2011Z" fill="url(#paint16_linear_1_7)"/>
<path d="M207.46 58.9788C207.677 58.9004 207.876 58.7799 208.047 58.6241C208.217 58.4683 208.356 58.2803 208.453 58.0708C208.551 57.8614 208.607 57.6346 208.618 57.4033C208.628 57.1721 208.593 56.941 208.514 56.7233C208.435 56.5057 208.314 56.3058 208.158 56.1351C208.002 55.9643 207.814 55.826 207.605 55.7281C207.396 55.6301 207.169 55.5744 206.939 55.5642C206.708 55.554 206.478 55.5894 206.261 55.6685C206.044 55.7469 205.844 55.8674 205.674 56.0232C205.503 56.179 205.365 56.367 205.267 56.5765C205.169 56.7859 205.114 57.0127 205.103 57.244C205.093 57.4752 205.128 57.7063 205.206 57.924C205.286 58.1416 205.407 58.3414 205.563 58.5122C205.719 58.683 205.907 58.8213 206.116 58.9192C206.325 59.0172 206.552 59.0728 206.782 59.0831C207.013 59.0933 207.243 59.0579 207.46 58.9788Z" fill="white"/>
<path d="M199.665 65.4277C198.679 64.3777 197.917 63.1362 197.428 61.7801C195.437 56.2828 198.274 50.211 203.767 48.2167C205.519 47.5793 207.409 47.4177 209.245 47.7484C211.08 48.0792 212.797 48.8904 214.221 50.1C212.802 48.5926 210.975 47.534 208.965 47.0546C206.955 46.5752 204.849 46.6959 202.908 47.402C197.417 49.3946 194.579 55.4668 196.571 60.965C197.195 62.698 198.262 64.2369 199.665 65.4277Z" fill="white"/>
<path fill-rule="evenodd" clip-rule="evenodd" d="M214.489 79.3944C226.67 74.9737 232.967 61.5129 228.554 49.3278C224.141 37.1439 210.688 30.8515 198.508 35.2734C186.326 39.6932 180.028 53.1552 184.441 65.339C188.854 77.5229 202.307 83.8154 214.489 79.3944ZM214.888 80.4979C227.679 75.8554 234.291 61.7219 229.657 48.9285C225.022 36.1364 210.898 29.5277 198.107 34.1702C185.318 38.8112 178.706 52.9459 183.339 65.7396C187.973 78.5317 202.099 85.1401 214.888 80.4979Z" fill="url(#paint17_linear_1_7)"/>
<path d="M223.853 39.8319C220.528 36.8067 216.444 34.7478 212.041 33.877C207.639 33.0063 203.084 33.3568 198.869 34.8908C186.078 39.5334 179.466 53.6681 184.101 66.4615C185.337 69.8884 187.319 72.9966 189.903 75.5597C186.949 72.8713 184.695 69.4993 183.339 65.7383C178.706 52.9459 185.318 38.8111 198.107 34.1702C202.489 32.5752 207.235 32.2605 211.792 33.2624C216.349 34.2644 220.532 36.5433 223.853 39.8319Z" fill="#E5E3FF"/>
<path d="M221.766 34.0502C221.747 33.9997 221.718 33.9541 221.679 33.9168C221.641 33.8795 221.594 33.8516 221.543 33.835C221.492 33.8185 221.438 33.8139 221.385 33.8215C221.332 33.8291 221.282 33.8488 221.238 33.879L213.129 39.3732C213.064 39.4168 213.015 39.4808 212.991 39.5551C212.967 39.6294 212.968 39.7097 212.994 39.7835L216.466 49.3647C216.5 49.4569 216.41 49.5502 216.315 49.5249C215.678 49.3605 215.005 49.3934 214.387 49.6193C212.703 50.2306 211.828 52.081 212.433 53.7518C213.038 55.4227 214.895 56.2814 216.58 55.6711C218.265 55.0595 219.141 53.2091 218.536 51.537L218.503 51.45L215.246 42.4581C215.228 42.409 215.227 42.3555 215.243 42.306C215.26 42.2565 215.291 42.2137 215.334 42.1843L221.587 37.9496C221.616 37.9294 221.65 37.9162 221.685 37.9111C221.721 37.906 221.757 37.9091 221.791 37.9202C221.825 37.9313 221.855 37.9501 221.881 37.9751C221.907 38.0001 221.926 38.0307 221.938 38.0644L224.075 43.9617C224.109 44.0551 224.021 44.1465 223.924 44.1218C223.287 43.9572 222.616 43.99 221.998 44.2156C220.312 44.8275 219.438 46.6776 220.043 48.3484C220.649 50.0189 222.505 50.8793 224.19 50.2677C225.875 49.6561 226.75 47.8057 226.144 46.1352L226.13 46.0939C226.125 46.0784 226.119 46.0632 226.112 46.0482L226.113 46.0478L221.766 34.0502Z" fill="#FF00F5"/>
<path fill-rule="evenodd" clip-rule="evenodd" d="M218.496 51.4503L218.495 51.4506L218.529 51.5373L218.559 51.625C219.102 53.2718 218.228 55.0688 216.572 55.6705C214.888 56.2817 213.031 55.423 212.425 53.7525C211.82 52.0816 212.697 50.2309 214.38 49.6196C214.999 49.395 215.67 49.3617 216.308 49.5239C216.403 49.5493 216.492 49.4575 216.458 49.3641L212.987 39.7838C212.96 39.7101 212.959 39.6296 212.983 39.555C213.007 39.4805 213.055 39.4162 213.12 39.3725L221.231 33.878C221.419 33.7493 221.68 33.8336 221.759 34.0492L226.105 46.0472L226.104 46.0475C226.111 46.0627 226.117 46.0784 226.122 46.0946L226.137 46.1342L226.167 46.2219C226.712 47.8697 225.837 49.667 224.182 50.267C222.497 50.8786 220.641 50.0196 220.036 48.3487C219.43 46.6782 220.305 44.8278 221.99 44.2162C222.266 44.1162 222.553 44.0535 222.845 44.0298L222.897 44.025C223.24 44.0035 223.584 44.0362 223.917 44.1221C224.013 44.1458 224.101 44.0544 224.067 43.9623L221.931 38.0647C221.919 38.031 221.9 38.0005 221.874 37.9755C221.848 37.9505 221.817 37.9317 221.783 37.9206C221.749 37.9094 221.713 37.9062 221.677 37.9111C221.642 37.916 221.608 37.929 221.579 37.949L215.326 42.1837C215.283 42.2133 215.251 42.2563 215.235 42.306C215.219 42.3558 215.22 42.4094 215.238 42.4587L218.496 51.4503ZM222.434 42.8965L221.238 39.5964L216.589 42.7464L219.999 52.1529C220.192 54.1129 218.907 56.0712 216.971 56.774C214.687 57.6032 212.152 56.4421 211.324 54.1514C210.494 51.8624 211.696 49.3444 213.98 48.5151C214.259 48.4139 214.543 48.3432 214.824 48.2999L211.885 40.1831C211.769 39.8635 211.763 39.5146 211.868 39.1917C211.973 38.8688 212.182 38.5902 212.462 38.4002L220.573 32.907C220.765 32.7767 220.984 32.692 221.213 32.6594C221.443 32.6267 221.677 32.647 221.897 32.7186C222.118 32.7901 222.32 32.9112 222.487 33.0725C222.654 33.2339 222.782 33.4312 222.862 33.6496L227.609 46.7495C227.801 48.7099 226.516 50.6681 224.582 51.3703C222.296 52.2002 219.761 51.039 218.933 48.7496C218.103 46.4593 219.305 43.9426 221.591 43.1127C221.87 43.0118 222.151 42.9401 222.434 42.8965Z" fill="#04005E"/>
<path d="M213.099 39.3943C213.042 39.4405 213.002 39.5031 212.983 39.5734C212.964 39.6436 212.967 39.7182 212.992 39.7867L216.488 49.4367L216.533 49.4473C216.628 49.4727 216.717 49.3796 216.684 49.2872L213.099 39.3943ZM212.246 52.5042C212.223 52.9178 212.283 53.3407 212.432 53.7521C213.038 55.4227 214.895 56.2827 216.579 55.6714C218.168 55.0947 219.039 53.4141 218.623 51.8224C218.589 52.4619 218.367 53.0767 217.986 53.5901C217.605 54.1035 217.082 54.4926 216.481 54.7088C214.796 55.3204 212.939 54.4601 212.335 52.7892C212.3 52.6958 212.27 52.6007 212.246 52.5042ZM215.3 42.2025L221.587 37.9483C221.616 37.9284 221.65 37.9154 221.685 37.9104C221.72 37.9055 221.756 37.9086 221.79 37.9196C221.824 37.9307 221.855 37.9493 221.881 37.9741C221.907 37.9989 221.927 38.0292 221.939 38.0628L224.1 44.0288L224.146 44.0404C224.241 44.0657 224.33 43.9727 224.296 43.8806L221.839 37.1006C221.827 37.067 221.807 37.0366 221.782 37.0118C221.756 36.987 221.725 36.9684 221.691 36.9574C221.657 36.9464 221.621 36.9432 221.586 36.9482C221.55 36.9532 221.517 36.9661 221.487 36.9861L215.151 41.2729C215.108 41.3022 215.076 41.3452 215.059 41.395C215.043 41.4449 215.044 41.4988 215.061 41.5482L215.3 42.2025ZM219.852 47.1017C219.877 47.1974 219.906 47.2921 219.941 47.3868C220.545 49.0576 222.403 49.9164 224.086 49.3051C224.687 49.0895 225.211 48.7007 225.592 48.1874C225.974 47.6742 226.195 47.0594 226.229 46.42C226.428 47.2019 226.328 48.0296 225.95 48.7411C225.572 49.4526 224.943 49.9968 224.186 50.2674C222.501 50.8789 220.645 50.0199 220.04 48.3491C219.891 47.9376 219.831 47.5134 219.852 47.1017Z" fill="#FFD0FE"/>
<path d="M147.998 104.394L135.233 54.5503L148.972 51.0316L154.026 70.7716L172.213 66.1141L167.159 46.3741L180.9 42.855L193.368 91.5132L179.629 95.0316L175.045 77.1689L159.24 81.2298L164.121 100.28L147.998 104.394Z" fill="#04005E"/>
<path d="M146.864 72.9876L133.578 77.8095C133.082 76.7369 132.467 75.8219 131.733 75.0674C131.033 74.3209 130.183 73.7315 129.24 73.3381C128.272 72.9175 127.224 72.7113 126.17 72.7337C125.047 72.7287 123.86 72.9549 122.603 73.4103C120.404 74.2089 118.739 75.4231 117.606 77.0526C116.488 78.6754 115.9 80.6348 115.844 82.9305C115.802 85.2198 116.293 87.7744 117.312 90.591C118.39 93.5686 119.687 95.919 121.199 97.6443C122.723 99.3479 124.422 100.434 126.296 100.898C128.165 101.35 130.16 101.19 132.28 100.421C133.489 99.9826 134.518 99.4371 135.368 98.7897C136.172 98.169 136.852 97.402 137.374 96.5288C137.868 95.6885 138.192 94.7587 138.328 93.7924C138.478 92.7415 138.443 91.672 138.223 90.6329L151.543 85.9057C152.131 88.0212 152.317 90.327 152.102 92.8228C151.882 95.3035 151.187 97.7765 150.019 100.242C148.862 102.687 147.145 104.939 144.872 107.001C142.598 109.062 139.694 110.733 136.159 112.016C131.732 113.623 127.411 114.108 123.2 113.469C119.004 112.825 115.213 111.012 111.822 108.032C108.45 105.048 105.789 100.866 103.838 95.4819C101.878 90.0681 101.262 85.1326 101.994 80.6761C102.72 76.2036 104.496 72.3793 107.327 69.2026C110.15 66.01 113.729 63.6278 118.063 62.0536C121.109 60.9482 124.065 60.3495 126.928 60.2606C129.793 60.1701 132.482 60.5829 134.998 61.4958C137.509 62.3938 139.779 63.8007 141.804 65.7161C143.83 67.6312 145.518 70.0552 146.864 72.9876Z" fill="#04005E"/>
<path d="M146.864 72.9876L133.578 77.8095C133.082 76.7369 132.467 75.8219 131.733 75.0674C131.033 74.3209 130.183 73.7315 129.24 73.3381C128.272 72.9175 127.224 72.7113 126.17 72.7337C125.047 72.7287 123.86 72.9549 122.603 73.4103C120.404 74.2089 118.739 75.4231 117.606 77.0526C116.488 78.6754 115.9 80.6348 115.844 82.9305C115.802 85.2198 116.293 87.7744 117.312 90.591C118.39 93.5686 119.687 95.919 121.199 97.6443C122.723 99.3479 124.422 100.434 126.296 100.898C128.165 101.35 130.16 101.19 132.28 100.421C133.489 99.9826 134.518 99.4371 135.368 98.7897C136.172 98.169 136.852 97.402 137.374 96.5288C137.868 95.6885 138.192 94.7587 138.328 93.7924C138.478 92.7415 138.443 91.672 138.223 90.6329L151.543 85.9057C152.131 88.0212 152.317 90.327 152.102 92.8228C151.882 95.3035 151.187 97.7765 150.019 100.242C148.862 102.687 147.145 104.939 144.872 107.001C142.598 109.062 139.694 110.733 136.159 112.016C131.732 113.623 127.411 114.108 123.2 113.469C119.004 112.825 115.213 111.012 111.822 108.032C108.45 105.048 105.789 100.866 103.838 95.4819C101.878 90.0681 101.262 85.1326 101.994 80.6761C102.72 76.2036 104.496 72.3793 107.327 69.2026C110.15 66.01 113.729 63.6278 118.063 62.0536C121.109 60.9482 124.065 60.3495 126.928 60.2606C129.793 60.1701 132.482 60.5829 134.998 61.4958C137.509 62.3938 139.779 63.8007 141.804 65.7161C143.83 67.6312 145.518 70.0552 146.864 72.9876Z" stroke="#04005E" stroke-width="0.116"/>
<path d="M154.127 94.8498L154.429 96.0319L155.608 95.7306L167.584 92.6634L168.763 92.362L168.46 91.1786L163.965 73.6253L177.462 70.1688L181.957 87.7233L182.26 88.9052L183.439 88.6038L195.414 85.537L196.592 85.2343L196.291 84.0519L184.01 36.0867L183.707 34.9036L182.528 35.2062L170.551 38.2721L169.372 38.5751L169.676 39.7569L174.169 57.3118L160.674 60.7668L156.178 43.2138L155.877 42.0313L154.697 42.333L142.72 45.4001L141.542 45.7015L141.846 46.8833L154.127 94.8498Z" fill="url(#paint18_linear_1_7)" stroke="#04005E" stroke-width="1.85"/>
<path d="M150.605 67.8156L151.839 67.3684L151.299 66.1669C149.923 63.1113 148.223 60.5328 146.183 58.4552C144.156 56.3908 141.89 54.8319 139.389 53.8009C136.891 52.7571 134.242 52.2404 131.452 52.2456C128.662 52.251 125.818 52.7878 122.929 53.8363C118.791 55.3384 115.378 57.7185 112.725 60.9801C110.049 64.2445 108.446 68.2077 107.884 72.8202C107.312 77.4556 108.069 82.5636 110.081 88.1169C112.08 93.6366 114.743 98.0385 118.106 101.259L118.108 101.262C121.465 104.455 125.215 106.486 129.351 107.297L129.353 107.298C133.484 108.101 137.672 107.721 141.892 106.189C145.237 104.974 148.02 103.32 150.2 101.202C152.34 99.1225 153.953 96.805 155.018 94.2491C156.071 91.7178 156.672 89.1513 156.811 86.5509L156.81 86.547C156.942 83.9619 156.692 81.5349 156.047 79.2757L155.691 78.0283L154.47 78.4598L142.342 82.7545L141.334 83.1113L141.559 84.1604C141.764 85.0593 141.821 85.9854 141.73 86.9024L141.728 86.9069L141.729 86.9108C141.653 87.6953 141.427 88.4576 141.064 89.1561C140.712 89.823 140.225 90.4263 139.585 90.9628C138.947 91.4786 138.141 91.9248 137.146 92.2849C135.425 92.9095 133.86 92.9787 132.406 92.5601C130.948 92.1265 129.546 91.1661 128.212 89.5756C126.884 87.9618 125.683 85.7304 124.634 82.8353C123.644 80.1022 123.157 77.6977 123.13 75.6025C123.117 73.5118 123.56 71.8264 124.394 70.4868C125.226 69.1664 126.489 68.1681 128.274 67.5208C129.297 67.1509 130.229 66.9968 131.081 67.0272L131.089 67.0278L131.099 67.0282C131.906 67.0368 132.702 67.2285 133.425 67.5888L133.438 67.5952L133.45 67.6016C134.173 67.9432 134.823 68.4347 135.405 69.0941L135.41 69.0995L135.416 69.1062C136.018 69.7688 136.544 70.5824 136.988 71.5593L137.452 72.5893L138.511 72.205L150.605 67.8156Z" fill="url(#paint19_linear_1_7)" stroke="#04005E" stroke-width="1.85"/>
<path d="M118.343 97.5234C120.186 101.332 128.421 107.878 139.276 105.165" stroke="url(#paint20_linear_1_7)" stroke-width="1.388"/>
<path d="M123.596 54.8918C139.14 49.5762 148.039 60.5992 150.182 66.665L148.966 67.1061C142.946 54.2797 133.071 52.9138 123.316 56.1298C112.572 60.938 110.428 69.2201 110.39 72.9117L109.098 72.2447C110.41 61.5777 119.32 56.2559 123.596 54.8918Z" fill="url(#paint21_linear_1_7)"/>
<path d="M154.875 79.6136L153.879 79.9701C156.663 95.9182 145.635 102.993 140.155 104.386L140.52 105.389C155.922 100.578 156.872 86.1795 154.875 79.6136Z" fill="url(#paint22_linear_1_7)"/>
<path d="M142.561 83.9398L154.88 79.6056L154.048 81.0319L142.899 84.8725L142.56 83.9401L142.561 83.9398Z" fill="url(#paint23_linear_1_7)"/>
<path d="M112.039 64.2828C108.244 69.8802 108.737 78.3844 109.458 81.9365L110.58 83.4766C109.439 73.1793 111.732 66.856 113.02 64.9825L112.039 64.2828Z" fill="url(#paint24_linear_1_7)"/>
<path d="M137.619 48.4932L141.35 47.626L143.186 54.2632L139.476 54.0674L137.619 48.4932Z" fill="#04005E"/>
<path fill-rule="evenodd" clip-rule="evenodd" d="M84.5845 126.832L80.9156 75.6942L99.0074 69.8272L125.392 112.861L111.75 117.812L107.007 110.235L97.4572 113.343L98.1697 122.321L84.5857 126.832L84.5845 126.832ZM95.2057 105.111L103.214 102.748L92.7779 83.9412L95.2057 105.111Z" fill="url(#paint25_linear_1_7)"/>
<path fill-rule="evenodd" clip-rule="evenodd" d="M93.0139 108.098L89.5957 77.0502L91.3714 76.5302L106.673 104.06L93.0139 108.098ZM105.322 103.553L90.5325 76.9425L93.8351 106.948L105.322 103.552L105.322 103.553Z" fill="url(#paint26_linear_1_7)"/>
<path fill-rule="evenodd" clip-rule="evenodd" d="M123.905 113.442L100.874 75.8506L102.153 74.9406L125.183 112.533L123.905 113.442Z" fill="url(#paint27_linear_1_7)" fill-opacity="0.3"/>
<path fill-rule="evenodd" clip-rule="evenodd" d="M93.6922 105.167L91.2823 84.02L92.8073 84.0154L95.2163 105.164L93.6922 105.167Z" fill="url(#paint28_linear_1_7)"/>
<path fill-rule="evenodd" clip-rule="evenodd" d="M103.073 102.57L92.6065 83.7978L94.0422 83.2893L104.508 102.061L103.073 102.57Z" fill="url(#paint29_linear_1_7)" fill-opacity="0.3"/>
<path fill-rule="evenodd" clip-rule="evenodd" d="M97.3258 111.158L98.21 122.363L96.6455 122.502L95.7613 111.298L97.3258 111.158Z" fill="url(#paint30_linear_1_7)" fill-opacity="0.5"/>
<path d="M84.4311 124.657L84.5867 126.83L98.1707 122.319L97.9991 120.153L84.4311 124.657Z" fill="url(#paint31_linear_1_7)"/>
<path d="M97.4607 113.341L107.004 110.235L111.748 117.811L125.389 112.86L124.27 111.037L111.583 115.641L106.839 108.065L97.2888 111.173L97.4607 113.341Z" fill="url(#paint32_linear_1_7)"/>
<path fill-rule="evenodd" clip-rule="evenodd" d="M107.007 110.235L111.75 117.812L125.392 112.861L99.0074 69.8272L80.916 75.6955L84.5857 126.832L98.1685 122.321L97.4572 113.343L107.007 110.235ZM96.5155 121.342L95.8035 112.356L107.736 108.473L112.453 116.011L123.128 112.138L98.2677 71.5907L82.5607 76.6849L86.0146 124.826L96.5148 121.34L96.5155 121.342Z" fill="url(#paint33_linear_1_7)"/>
<path fill-rule="evenodd" clip-rule="evenodd" d="M81.7181 130.84L77.6176 73.7136L100.48 66.2992L129.915 114.308L110.337 121.412L105.546 113.759L100.759 115.317L101.468 124.28L81.7181 130.84ZM97.4508 113.345L107.001 110.237L111.744 117.813L125.387 112.861L112.193 91.3444L99.0008 69.8275L80.9093 75.6958L84.5787 126.831L98.1627 122.32L97.4508 113.345ZM103.206 102.75L92.7703 83.9431L95.198 105.113L103.206 102.75ZM97.9216 101.287L98.7055 101.056L97.6841 99.2147L97.9216 101.287Z" fill="#04005E"/>
<path fill-rule="evenodd" clip-rule="evenodd" d="M100.664 95.0162L105.345 103.552L93.8039 107.008L93.1859 101.016L94.7478 100.845L95.1834 105.081L103.108 102.709L99.2619 95.6958L100.664 95.0162Z" fill="url(#paint34_linear_1_7)"/>
<path d="M77.2173 70.5449L77.2694 70.6883L77.4122 70.6363L82.9671 68.6209L83.1112 68.5686L83.0591 68.4252L80.6832 61.8644L82.3772 61.2506L88.3293 66.5885L88.3985 66.6487L88.483 66.618L94.5175 64.4284L94.7599 64.3407L94.5668 64.17L87.7887 58.2119C88.5994 57.3737 89.1677 56.3303 89.4331 55.193C89.7311 53.9233 89.6083 52.5481 89.0739 51.0718C88.5431 49.6095 87.7642 48.4622 86.7321 47.6406C85.7015 46.8199 84.5015 46.3408 83.1371 46.2019C81.7718 46.0645 80.3206 46.2777 78.7845 46.8344L69.9517 50.0403L69.8088 50.0923L69.8609 50.2356L77.2173 70.5449ZM80.8425 56.6346L79.027 57.2937L77.3487 52.662L79.1645 52.0041C79.8055 51.7705 80.3751 51.6634 80.8753 51.6744L80.8779 51.6737C81.3341 51.664 81.7813 51.8032 82.1521 52.0704L82.155 52.0711C82.5073 52.3202 82.7896 52.7174 82.9922 53.2786C83.1933 53.8334 83.229 54.3126 83.1161 54.7229C83.0089 55.1345 82.7667 55.4996 82.381 55.8163C81.9955 56.1288 81.4834 56.401 80.8425 56.6346ZM97.0038 62.9286L97.0054 62.9295L101.388 60.6689C101.508 60.122 101.472 59.5737 101.283 59.0295L101.282 59.0269C100.987 58.236 100.436 57.6639 99.6394 57.3191C98.8532 56.9718 98.0701 56.935 97.2983 57.2149C96.9099 57.3494 96.5522 57.5603 96.2462 57.8352C95.9402 58.1101 95.6921 58.4436 95.5164 58.8161C95.3342 59.1771 95.2297 59.5726 95.2099 59.977C95.19 60.3813 95.2551 60.7855 95.401 61.1632C95.6883 61.9766 96.225 62.5672 97.0038 62.9286ZM43.0617 61.2147L42.9249 61.2802L42.9904 61.4175L52.3426 80.7208L52.4093 80.8577L52.5471 80.7907L57.686 78.2933L57.8224 78.2265L57.7557 78.0896L52.4778 67.196L61.9009 75.9494L61.9781 76.0198L62.0712 75.9748L65.17 74.4687L65.2631 74.4236L65.2547 74.3197L64.2559 61.5611L69.498 72.382L69.5648 72.519L69.7012 72.4522L74.8401 69.9548L74.9779 69.8878L74.9111 69.7508L65.5593 50.4488L65.4922 50.3106L65.3558 50.3773L58.8174 53.5549L58.7268 53.5993L58.7333 53.7011L59.5272 66.7189L59.4835 66.7393L49.7657 58.0597L49.6904 57.9915L49.5985 58.0362L43.0617 61.2147Z" fill="#04005E" stroke="#04005E" stroke-width="0.231"/>
<path d="M78.0936 68.0212L78.3156 68.9093L79.2 68.6896L84.9361 67.2694L85.8215 67.0481L85.6023 66.1606L84.1081 60.1286L84.6771 59.9864L89.7356 65.583L90.1024 65.9876L90.6308 65.8568L96.8632 64.3126L98.3618 63.942L97.3116 62.8041L91.7034 56.7221C92.4203 55.9781 92.9661 55.0858 93.3025 54.1075C93.7918 52.7084 93.8025 51.1733 93.3963 49.5372C92.9954 47.9174 92.2796 46.5612 91.2205 45.5179C90.1726 44.4868 88.8952 43.8176 87.4165 43.5087C85.9407 43.2005 84.3577 43.2712 82.683 43.6857L73.5638 45.9462L72.6781 46.1662L72.8988 47.0546L78.0936 68.0212ZM83.7064 53.6467L82.5707 53.9292L81.7524 50.6285L82.8881 50.3459C83.488 50.1973 83.968 50.1657 84.3464 50.2153L84.3534 50.2163L84.3617 50.2169C84.7186 50.2568 84.9682 50.3767 85.1574 50.5483L85.1648 50.5559L85.1718 50.5624C85.347 50.7157 85.5239 50.9842 85.6401 51.4596C85.7565 51.9255 85.7258 52.2364 85.6423 52.4448L85.6408 52.4493L85.6395 52.4551C85.5535 52.6805 85.391 52.8979 85.0894 53.0957C84.7639 53.3062 84.3126 53.4965 83.7064 53.6467ZM98.9213 62.9973L98.9261 63.0001L98.9308 63.003C99.3687 63.2638 99.8536 63.4349 100.357 63.5066C100.861 63.5784 101.374 63.5492 101.867 63.4208C102.52 63.2625 103.119 62.9311 103.6 62.4613L103.605 62.4575L103.609 62.4536C104.077 61.991 104.426 61.4223 104.629 60.7956C104.849 60.1259 104.876 59.4353 104.712 58.742L104.707 58.7228C104.444 57.6968 103.82 56.9037 102.893 56.378C101.987 55.8595 101.013 55.7058 100.015 55.9526C99.5197 56.0689 99.0526 56.2825 98.6405 56.5811C98.2284 56.8797 97.8796 57.2573 97.6141 57.6921L97.6132 57.6937L97.611 57.6956C97.339 58.1218 97.1585 58.6002 97.081 59.1004C97.0035 59.6005 97.0306 60.1116 97.1607 60.601C97.2742 61.1001 97.4891 61.5706 97.792 61.9829C98.0949 62.3952 98.4794 62.7406 98.9213 62.9973Z" fill="url(#paint35_linear_1_7)" stroke="#04005E" stroke-width="1.388"/>
<path d="M44.443 57.7993L43.6226 58.1988L44.0222 59.0222L53.374 78.3241L53.7724 79.1478L54.5941 78.748L59.733 76.2506L60.5537 75.8523L60.1538 75.0277L56.6447 67.7834L63.1003 73.78L63.5577 74.2054L64.1182 73.9321L67.217 72.426L67.7766 72.1542L67.7271 71.533L67.0437 62.791L70.5295 69.9854L70.9278 70.809L71.7495 70.4092L76.8871 67.9121L77.7092 67.5136L77.3092 66.689L67.9575 47.387L67.5578 46.5636L66.7374 46.9631L60.2002 50.1404L59.6515 50.4068L59.6892 51.0187L60.3741 62.2554L51.9857 54.7622L51.5302 54.3553L50.9802 54.622L44.443 57.7993Z" fill="url(#paint36_linear_1_7)" stroke="#04005E" stroke-width="1.388" stroke-miterlimit="16"/>
<path d="M45.0963 59.1928L51.2228 56.2378L62.1361 65.8288L61.2432 51.3033L67.2991 48.3755" stroke="url(#paint37_linear_1_7)" stroke-width="0.925"/>
<path d="M79.2823 67.3923L74.5361 47.3688L83.7635 45.1561" stroke="url(#paint38_linear_1_7)" stroke-width="0.925"/>
<path d="M171.255 27.39L177.672 12.9246L171.424 9.12511L171.255 27.3887L171.255 27.39ZM175.959 29.8228L184.053 28.4265L182.388 23.8308L175.959 29.8228ZM32.6949 114.172L23.527 115.766L26.743 119.897L32.6949 114.172ZM33.3772 105.656L12.8591 97.0174L16.5592 107.233L33.3772 105.656ZM91.481 136.973L94.5466 130.991L87.0949 134.977L91.481 136.973ZM127.329 37.6738L123.784 46.0721L122.987 37.1343L127.329 37.6738ZM116.666 24.9064L117.706 46.1991L109.528 29.9676L116.666 24.9064ZM105.759 41.828L114.046 50.3773L103.013 46.4359L105.759 41.828Z" fill="#04005E"/>
<path d="M54.9411 91.252L56.0858 90.6259C56.8891 90.1708 57.7748 89.8804 58.6916 89.7717C59.6083 89.6631 60.5377 89.7383 61.4257 89.9931C62.3137 90.2478 63.1426 90.677 63.8642 91.2556C64.5858 91.8342 65.1857 92.5508 65.629 93.3636C66.0723 94.1764 66.3502 95.0692 66.4465 95.9901C66.5428 96.9111 66.4555 97.8418 66.1899 98.728C65.9242 99.6143 65.4854 100.439 64.899 101.153C64.3125 101.867 63.5902 102.457 62.7739 102.888L61.6292 103.514L54.9411 91.252Z" fill="white"/>
<path d="M80.697 132.601L79.3697 112.715L82.0756 110.955L83.4203 128.757L98.9851 124.146L99.0508 126.459L80.697 132.601Z" fill="#04005E" stroke="#04005E" stroke-width="0.116"/>
<path d="M159.166 64.2058L154.374 45.1713L154.023 43.7565L154.978 43.4905L159.809 62.1863L175.579 58.167L170.917 39.4915L182.815 36.391L194.664 82.7238L193.378 83.1907L181.762 38.3961L172.755 40.7724L177.58 59.2264L159.166 64.2058Z" fill="url(#paint39_linear_1_7)"/>
<path d="M143.371 47.6225L155.223 44.6192L154.904 43.516L142.981 46.5465L143.371 47.6225Z" fill="url(#paint40_linear_1_7)"/>
<path d="M161.393 72.8134L166.322 91.5541L167.251 91.217L162.556 72.7199L161.393 72.8134Z" fill="url(#paint41_linear_1_7)"/>
<path d="M178.263 68.6999L183.115 87.2422L184.044 86.9039L179.311 68.2558L178.263 68.6999Z" fill="url(#paint42_linear_1_7)"/>
<path d="M198.208 82.2538L196.695 79.6379L195.648 82.823L198.208 82.2538ZM57.3896 141.591L36.1222 99.2261L54.3676 90.037C57.5046 88.4561 60.5618 87.6946 63.5373 87.7504C66.5128 87.8061 69.2193 88.6293 71.6539 90.2194C74.0898 91.8092 76.0617 94.1077 77.572 97.1131C79.0947 100.147 79.7389 103.114 79.5053 106.013C79.285 108.906 78.2655 111.562 76.4455 113.982C74.6399 116.394 72.1284 118.411 68.9082 120.033L62.552 123.235L68.8645 135.811L57.3896 141.591ZM58.0649 114.296L62.11 112.259C63.4582 111.58 64.4898 110.767 65.2034 109.821C65.9236 108.852 66.3177 107.799 66.3839 106.659C66.4635 105.514 66.203 104.341 65.5993 103.141C64.9911 101.928 64.2112 101.025 63.2579 100.433C62.3133 99.8204 61.2445 99.5301 60.0538 99.5599C58.8688 99.5692 57.6024 99.9143 56.2536 100.591L52.2088 102.629L58.0649 114.296Z" fill="#04005E"/>
<path d="M57.3896 141.591L36.1222 99.2261L54.3677 90.037C57.5046 88.4561 60.5618 87.6946 63.5373 87.7504C66.5128 87.8061 69.2193 88.6293 71.6539 90.2194C74.0898 91.8092 76.0617 94.1077 77.572 97.1131C79.0947 100.147 79.7389 103.114 79.5053 106.013C79.285 108.906 78.2655 111.562 76.4455 113.982C74.6399 116.394 72.1284 118.411 68.9082 120.033L62.552 123.235L68.8645 135.811L57.3896 141.591ZM58.0649 114.296L62.11 112.259C63.4582 111.58 64.4898 110.767 65.2034 109.821C65.9236 108.852 66.3177 107.799 66.3839 106.659C66.4635 105.514 66.203 104.341 65.5993 103.141C64.9911 101.928 64.2112 101.025 63.2579 100.433C62.3133 99.8204 61.2446 99.5301 60.0538 99.5599C58.8688 99.5692 57.6024 99.9143 56.2536 100.591L52.2088 102.629L58.0649 114.296Z" stroke="#04005E" stroke-width="0.105"/>
<path d="M65.6627 122.861L72.445 119.444C76.1119 117.598 78.9989 115.304 81.0882 112.557C83.1915 109.802 84.39 106.777 84.67 103.489C84.9656 100.187 84.2471 96.8301 82.5381 93.4257C80.8451 90.0526 78.6079 87.4627 75.8197 85.6782C73.0376 83.8963 69.9358 82.9883 66.5269 82.9498C63.1157 82.9133 59.6184 83.8065 56.0404 85.6078L35.1585 96.7857L34.7879 96.9735L34.9754 97.344L57.762 144.122C59.4387 144.339 70.3583 140.252 72.9096 136.388L65.6627 122.861Z" fill="#04005E" stroke="#04005E" stroke-width="0.631"/>
<path d="M72.6189 133.111L66.0131 119.952C66.0131 119.952 69.5856 118.519 72.2676 117.211C76.3663 115.21 79.1617 113.244 81.9136 109.184C84.1887 105.826 85.3153 103.522 85.6177 99.4721C85.9197 95.4154 85.1772 92.8571 83.3878 89.2933C81.6162 85.7631 79.0738 82.8035 76.1455 80.8923C73.2268 78.9867 69.6691 77.914 66.1201 77.8466C62.5631 77.7798 58.175 78.4226 53.5924 80.407C47.1443 83.1976 42.288 85.5945 33.7674 93.2378L34.2644 94.2286L57.7337 140.609L58.2307 141.599L59.2179 141.102L72.1287 134.598L73.1163 134.103L72.6189 133.111Z" fill="url(#paint43_linear_1_7)"/>
<path fill-rule="evenodd" clip-rule="evenodd" d="M36.4585 93.9997C40.9626 90.1123 52.5162 81.8385 62.61 80.0878C64.0127 79.8432 65.381 79.7432 66.7016 79.7666C74.8772 79.9121 81.2659 84.8009 83.4689 89.8563C81.8893 80.8475 70.1508 73.1393 55.6842 78.9554C42.0932 84.4194 38.9856 87.4846 34.3694 92.0404L33.4568 92.9389L36.4585 93.9997Z" fill="url(#paint44_linear_1_7)"/>
<path d="M83.4702 89.856C81.266 84.801 74.8772 79.9122 66.7029 79.7663C72.2028 80.2802 79.3935 84.3158 82.1905 91.2922C85.0856 98.5092 83.8647 104.172 77.6197 111.776L78.9222 113.278C78.9222 113.278 86.8857 103.222 85.0564 94.3096C84.4297 91.2546 83.846 90.9096 83.4702 89.856Z" fill="url(#paint45_linear_1_7)"/>
<path d="M36.4585 93.9997L33.4568 92.9389L57.9969 141.537L73.0885 134.133L65.6962 120.213L63.2347 118.478L70.23 132.934C67.7163 134.59 60.6733 137.739 58.7214 137.674L36.4585 93.9997Z" fill="url(#paint46_radial_1_7)"/>
<path d="M78.9222 113.278L77.621 111.776C75.8121 113.682 71.0598 116.522 63.2347 118.478L65.6962 120.213L78.9222 113.278Z" fill="url(#paint47_radial_1_7)"/>
<path d="M72.9094 132.993L66.302 119.833C66.302 119.833 70.1359 118.617 72.8192 117.308C76.917 115.309 79.4113 113.446 82.1631 109.386C84.4386 106.028 85.5962 103.377 85.8983 99.3258C86.2657 94.3975 84.5979 90.9134 83.5067 88.7387C81.7351 85.2085 79.1566 82.6741 76.2271 80.7631C73.3182 78.8498 69.9281 77.8044 66.4521 77.7487C62.8964 77.6816 58.176 78.421 53.5946 80.4051C47.1453 83.196 42.5394 85.6567 33.9626 93.1782L57.7359 140.607C60.9932 140.868 72.7504 135.475 72.9094 132.993Z" stroke="#04005E" stroke-width="2.07"/>
<path fill-rule="evenodd" clip-rule="evenodd" d="M58.1457 90.0608L51.5919 93.6487L59.6859 109.247C60.2651 109.102 62.925 108.644 67.419 105.823C71.9114 103 73.2062 98.165 71.0313 93.9374C68.8561 89.7086 62.3581 87.886 58.1457 90.0608ZM49.9579 92.9844L59.1981 110.451C59.1981 110.451 62.9936 109.932 68.2324 106.696C73.4712 103.46 75.0166 98.4453 72.2843 93.1375C69.5533 87.8293 62.4778 85.7078 57.1876 88.4402L49.9579 92.9844Z" fill="url(#paint48_linear_1_7)"/>
<path fill-rule="evenodd" clip-rule="evenodd" d="M59.2268 92.0816L54.5437 94.499L60.6162 106.299L65.2993 103.882C66.0714 103.483 66.7573 102.936 67.3181 102.271C67.8788 101.606 68.3032 100.837 68.5672 100.007C68.8312 99.1773 68.9296 98.3032 68.8566 97.4348C68.7837 96.5664 68.541 95.7206 68.1422 94.9458C67.7435 94.171 67.1966 93.4823 66.5328 92.919C65.869 92.3557 65.1012 91.9289 64.2733 91.663C63.4455 91.397 62.5737 91.2971 61.7078 91.3689C60.8419 91.4407 59.9989 91.6829 59.2268 92.0816ZM51.5861 93.5496L59.6738 109.264C61.0974 108.767 63.609 108.273 67.7586 105.565C71.9097 102.858 73.2612 98.2546 71.0271 93.9154C68.7957 89.5755 63.0861 88.3853 58.2197 90.1238C53.3546 91.862 51.5861 93.5496 51.5861 93.5496Z" fill="url(#paint49_linear_1_7)"/>
<path d="M53.3419 94.1862C54.8614 93.1075 57.4082 91.8604 58.9025 91.3264C63.2874 89.7599 67.5058 91.0523 69.3907 94.7323C72.7309 101.247 66.8526 105.997 60.2089 107.658L53.3419 94.1862Z" fill="#04005E"/>
</g>
<defs>
<linearGradient id="paint0_linear_1_7" x1="198.107" y1="34.1689" x2="214.918" y2="80.487" gradientUnits="userSpaceOnUse">
<stop stop-color="#05004A"/>
<stop offset="1" stop-color="#030033"/>
</linearGradient>
<linearGradient id="paint1_linear_1_7" x1="202.89" y1="47.4093" x2="210.095" y2="67.2586" gradientUnits="userSpaceOnUse">
<stop stop-color="#FAC400"/>
<stop offset="0.495" stop-color="#FAA500"/>
<stop offset="1" stop-color="#FA8700"/>
</linearGradient>
<linearGradient id="paint2_linear_1_7" x1="200.894" y1="48.6153" x2="209.904" y2="65.1874" gradientUnits="userSpaceOnUse">
<stop offset="0.583" stop-color="#FDE280" stop-opacity="0"/>
<stop offset="1" stop-color="#FDE280"/>
</linearGradient>
<linearGradient id="paint3_linear_1_7" x1="201.2" y1="52.5988" x2="208.83" y2="61.4753" gradientUnits="userSpaceOnUse">
<stop stop-color="#832CC8"/>
<stop offset="0.482" stop-color="#FAA501"/>
<stop offset="1" stop-color="#FEE280"/>
</linearGradient>
<radialGradient id="paint4_radial_1_7" cx="0" cy="0" r="1" gradientUnits="userSpaceOnUse" gradientTransform="translate(228.484 78.1477) rotate(-135.877) scale(61.5072 74.2794)">
<stop offset="0.222" stop-color="white"/>
<stop offset="0.447" stop-color="white" stop-opacity="0"/>
</radialGradient>
<radialGradient id="paint5_radial_1_7" cx="0" cy="0" r="1" gradientUnits="userSpaceOnUse" gradientTransform="translate(184.332 35.3279) rotate(44.977) scale(62.4488 75.4101)">
<stop offset="0.222" stop-color="white"/>
<stop offset="0.447" stop-color="white" stop-opacity="0"/>
</radialGradient>
<radialGradient id="paint6_radial_1_7" cx="0" cy="0" r="1" gradientUnits="userSpaceOnUse" gradientTransform="translate(228.484 78.1477) rotate(-135.877) scale(61.5072 74.2794)">
<stop offset="0.222" stop-color="white"/>
<stop offset="0.447" stop-color="white" stop-opacity="0"/>
</radialGradient>
<radialGradient id="paint7_radial_1_7" cx="0" cy="0" r="1" gradientUnits="userSpaceOnUse" gradientTransform="translate(184.332 35.3279) rotate(44.977) scale(62.4488 75.4101)">
<stop offset="0.222" stop-color="white"/>
<stop offset="0.447" stop-color="white" stop-opacity="0"/>
</radialGradient>
<radialGradient id="paint8_radial_1_7" cx="0" cy="0" r="1" gradientUnits="userSpaceOnUse" gradientTransform="translate(228.484 78.1477) rotate(-135.877) scale(61.5072 74.2794)">
<stop offset="0.222" stop-color="white"/>
<stop offset="0.447" stop-color="white" stop-opacity="0"/>
</radialGradient>
<radialGradient id="paint9_radial_1_7" cx="0" cy="0" r="1" gradientUnits="userSpaceOnUse" gradientTransform="translate(184.332 35.3279) rotate(44.977) scale(62.4488 75.4101)">
<stop offset="0.222" stop-color="white"/>
<stop offset="0.447" stop-color="white" stop-opacity="0"/>
</radialGradient>
<radialGradient id="paint10_radial_1_7" cx="0" cy="0" r="1" gradientUnits="userSpaceOnUse" gradientTransform="translate(228.484 78.1477) rotate(-135.877) scale(61.5072 74.2794)">
<stop offset="0.222" stop-color="white"/>
<stop offset="0.447" stop-color="white" stop-opacity="0"/>
</radialGradient>
<radialGradient id="paint11_radial_1_7" cx="0" cy="0" r="1" gradientUnits="userSpaceOnUse" gradientTransform="translate(184.332 35.3279) rotate(44.977) scale(62.4488 75.4101)">
<stop offset="0.222" stop-color="white"/>
<stop offset="0.447" stop-color="white" stop-opacity="0"/>
</radialGradient>
<radialGradient id="paint12_radial_1_7" cx="0" cy="0" r="1" gradientUnits="userSpaceOnUse" gradientTransform="translate(228.484 78.1477) rotate(-135.877) scale(61.5072 74.2794)">
<stop offset="0.222" stop-color="white"/>
<stop offset="0.447" stop-color="white" stop-opacity="0"/>
</radialGradient>
<radialGradient id="paint13_radial_1_7" cx="0" cy="0" r="1" gradientUnits="userSpaceOnUse" gradientTransform="translate(184.332 35.3279) rotate(44.977) scale(62.4488 75.4101)">
<stop offset="0.222" stop-color="white"/>
<stop offset="0.447" stop-color="white" stop-opacity="0"/>
</radialGradient>
<radialGradient id="paint14_radial_1_7" cx="0" cy="0" r="1" gradientUnits="userSpaceOnUse" gradientTransform="translate(228.484 78.1477) rotate(-135.877) scale(61.5072 74.2794)">
<stop offset="0.222" stop-color="white"/>
<stop offset="0.447" stop-color="white" stop-opacity="0"/>
</radialGradient>
<radialGradient id="paint15_radial_1_7" cx="0" cy="0" r="1" gradientUnits="userSpaceOnUse" gradientTransform="translate(184.332 35.3279) rotate(44.977) scale(62.4488 75.4101)">
<stop offset="0.222" stop-color="white"/>
<stop offset="0.447" stop-color="white" stop-opacity="0"/>
</radialGradient>
<linearGradient id="paint16_linear_1_7" x1="205.453" y1="54.4658" x2="207.535" y2="60.1997" gradientUnits="userSpaceOnUse">
<stop stop-color="#05004A"/>
<stop offset="1" stop-color="#030033"/>
</linearGradient>
<linearGradient id="paint17_linear_1_7" x1="193.45" y1="36.9837" x2="214.472" y2="75.6529" gradientUnits="userSpaceOnUse">
<stop stop-color="#E5E3FF"/>
<stop offset="0.271" stop-color="#DAC9F5" stop-opacity="0.37"/>
<stop offset="0.495" stop-color="#C9A2E7" stop-opacity="0.438"/>
<stop offset="1" stop-color="#FF00FF"/>
</linearGradient>
<linearGradient id="paint18_linear_1_7" x1="65.4171" y1="65.7565" x2="78.0593" y2="115.127" gradientUnits="userSpaceOnUse">
<stop stop-color="#FBC401"/>
<stop offset="1" stop-color="#FA8901"/>
</linearGradient>
<linearGradient id="paint19_linear_1_7" x1="71.6511" y1="73.746" x2="89.849" y2="123.887" gradientUnits="userSpaceOnUse">
<stop stop-color="#FBC401"/>
<stop offset="1" stop-color="#FA8901"/>
</linearGradient>
<linearGradient id="paint20_linear_1_7" x1="125.286" y1="95.1938" x2="131.583" y2="107.838" gradientUnits="userSpaceOnUse">
<stop stop-color="white"/>
<stop offset="1" stop-color="white" stop-opacity="0"/>
</linearGradient>
<linearGradient id="paint21_linear_1_7" x1="148.729" y1="67.5787" x2="111.356" y2="56.4691" gradientUnits="userSpaceOnUse">
<stop stop-color="white" stop-opacity="0"/>
<stop offset="0.317" stop-color="white"/>
<stop offset="1" stop-color="white" stop-opacity="0"/>
</linearGradient>
<linearGradient id="paint22_linear_1_7" x1="144.481" y1="83.5047" x2="151.049" y2="101.6" gradientUnits="userSpaceOnUse">
<stop stop-color="white"/>
<stop offset="1" stop-color="white" stop-opacity="0"/>
</linearGradient>
<linearGradient id="paint23_linear_1_7" x1="154.146" y1="80.8714" x2="146.419" y2="83.4283" gradientUnits="userSpaceOnUse">
<stop stop-color="white"/>
<stop offset="1" stop-color="white" stop-opacity="0"/>
</linearGradient>
<linearGradient id="paint24_linear_1_7" x1="109.717" y1="82.6535" x2="111.799" y2="71.3638" gradientUnits="userSpaceOnUse">
<stop stop-color="white"/>
<stop offset="1" stop-color="white" stop-opacity="0"/>
</linearGradient>
<linearGradient id="paint25_linear_1_7" x1="80.4462" y1="79.3903" x2="108.99" y2="121.373" gradientUnits="userSpaceOnUse">
<stop offset="0.141" stop-color="#FAC400"/>
<stop offset="0.479" stop-color="#FAA500"/>
<stop offset="0.865" stop-color="#FA8700"/>
</linearGradient>
<linearGradient id="paint26_linear_1_7" x1="94.1491" y1="102.147" x2="105.303" y2="103.882" gradientUnits="userSpaceOnUse">
<stop offset="0.135" stop-color="white" stop-opacity="0"/>
<stop offset="1" stop-color="white"/>
</linearGradient>
<linearGradient id="paint27_linear_1_7" x1="104.927" y1="80.6039" x2="127.115" y2="112.982" gradientUnits="userSpaceOnUse">
<stop offset="0.01" stop-color="#FBA201" stop-opacity="0"/>
<stop offset="0.297" stop-color="#7A0049"/>
<stop offset="1" stop-color="#FA8701" stop-opacity="0"/>
</linearGradient>
<linearGradient id="paint28_linear_1_7" x1="90.6873" y1="84.3455" x2="93.9825" y2="105.446" gradientUnits="userSpaceOnUse">
<stop offset="0.01" stop-color="#FBA201" stop-opacity="0"/>
<stop offset="0.364" stop-color="#7A0049" stop-opacity="0.72"/>
<stop offset="0.618" stop-color="#8B1240" stop-opacity="0.52"/>
<stop offset="1" stop-color="#FA8701" stop-opacity="0"/>
</linearGradient>
<linearGradient id="paint29_linear_1_7" x1="93.1569" y1="83.977" x2="100.664" y2="104.216" gradientUnits="userSpaceOnUse">
<stop offset="0.01" stop-color="#FBA201" stop-opacity="0"/>
<stop offset="0.094" stop-color="#7A0049"/>
<stop offset="1" stop-color="#FA8701" stop-opacity="0"/>
</linearGradient>
<linearGradient id="paint30_linear_1_7" x1="95.8798" y1="111.034" x2="99.9973" y2="122.214" gradientUnits="userSpaceOnUse">
<stop offset="0.01" stop-color="#FBA201" stop-opacity="0"/>
<stop offset="0.192" stop-color="#7A0049"/>
<stop offset="0.535" stop-color="#B0392B" stop-opacity="0.575"/>
<stop offset="0.811" stop-color="#FA8701" stop-opacity="0"/>
</linearGradient>
<linearGradient id="paint31_linear_1_7" x1="97.3893" y1="109.417" x2="107.276" y2="116.419" gradientUnits="userSpaceOnUse">
<stop stop-color="#FDE280" stop-opacity="0"/>
<stop offset="1" stop-color="#FDE280"/>
</linearGradient>
<linearGradient id="paint32_linear_1_7" x1="97.3855" y1="109.418" x2="107.272" y2="116.419" gradientUnits="userSpaceOnUse">
<stop stop-color="#FDE280" stop-opacity="0"/>
<stop offset="1" stop-color="#FDE280"/>
</linearGradient>
<linearGradient id="paint33_linear_1_7" x1="77.6627" y1="80.6177" x2="111.582" y2="115.173" gradientUnits="userSpaceOnUse">
<stop stop-color="white"/>
<stop offset="0.702" stop-color="#FA8701" stop-opacity="0"/>
</linearGradient>
<linearGradient id="paint34_linear_1_7" x1="96.0748" y1="96.4475" x2="101.087" y2="106.632" gradientUnits="userSpaceOnUse">
<stop stop-color="#FAA101" stop-opacity="0"/>
<stop offset="0.292" stop-color="#FAA401" stop-opacity="0"/>
<stop offset="1" stop-color="#FDE280"/>
</linearGradient>
<linearGradient id="paint35_linear_1_7" x1="86.5197" y1="43.6785" x2="91.7974" y2="64.9724" gradientUnits="userSpaceOnUse">
<stop stop-color="#FBBE02"/>
<stop offset="1" stop-color="#FA8E02"/>
</linearGradient>
<linearGradient id="paint36_linear_1_7" x1="55.9894" y1="53.2054" x2="65.3657" y2="72.4954" gradientUnits="userSpaceOnUse">
<stop stop-color="#FBBE02"/>
<stop offset="1" stop-color="#FA8E02"/>
</linearGradient>
<linearGradient id="paint37_linear_1_7" x1="55.3881" y1="52.7791" x2="61.6904" y2="66.5569" gradientUnits="userSpaceOnUse">
<stop stop-color="white"/>
<stop offset="1" stop-color="white" stop-opacity="0"/>
</linearGradient>
<linearGradient id="paint38_linear_1_7" x1="74.0233" y1="47.0686" x2="79.2365" y2="48.2005" gradientUnits="userSpaceOnUse">
<stop stop-color="white"/>
<stop offset="1" stop-color="white" stop-opacity="0"/>
</linearGradient>
<linearGradient id="paint39_linear_1_7" x1="162.174" y1="39.5815" x2="173.956" y2="82.6935" gradientUnits="userSpaceOnUse">
<stop stop-color="white"/>
<stop offset="1" stop-color="white" stop-opacity="0"/>
</linearGradient>
<linearGradient id="paint40_linear_1_7" x1="154.066" y1="44.5521" x2="144.235" y2="46.6609" gradientUnits="userSpaceOnUse">
<stop stop-color="white"/>
<stop offset="1" stop-color="white" stop-opacity="0"/>
</linearGradient>
<linearGradient id="paint41_linear_1_7" x1="161.107" y1="72.9162" x2="167.692" y2="91.0566" gradientUnits="userSpaceOnUse">
<stop stop-color="#8B1640" stop-opacity="0.31"/>
<stop offset="0.302" stop-color="#8B1640"/>
<stop offset="1" stop-color="#8B1640" stop-opacity="0"/>
</linearGradient>
<linearGradient id="paint42_linear_1_7" x1="179.22" y1="68.122" x2="184.476" y2="86.748" gradientUnits="userSpaceOnUse">
<stop stop-color="#8B1640" stop-opacity="0.28"/>
<stop offset="0.291" stop-color="#8B1640"/>
<stop offset="1" stop-color="#8B1640" stop-opacity="0"/>
</linearGradient>
<linearGradient id="paint43_linear_1_7" x1="88.024" y1="64.8197" x2="112.717" y2="113.845" gradientUnits="userSpaceOnUse">
<stop stop-color="#FBC401"/>
<stop offset="1" stop-color="#FA8901"/>
</linearGradient>
<linearGradient id="paint44_linear_1_7" x1="63.3157" y1="74.8152" x2="57.437" y2="102.131" gradientUnits="userSpaceOnUse">
<stop stop-color="white"/>
<stop offset="1" stop-color="white" stop-opacity="0"/>
</linearGradient>
<linearGradient id="paint45_linear_1_7" x1="91.3537" y1="107.335" x2="75.2804" y2="110.504" gradientUnits="userSpaceOnUse">
<stop stop-color="white"/>
<stop offset="1" stop-color="white" stop-opacity="0"/>
</linearGradient>
<radialGradient id="paint46_radial_1_7" cx="0" cy="0" r="1" gradientUnits="userSpaceOnUse" gradientTransform="translate(57.4847 143.511) rotate(-103.33) scale(53.3405 30.7886)">
<stop offset="0.406" stop-color="#FDE280"/>
<stop offset="1" stop-color="#FFF2C4" stop-opacity="0.31"/>
</radialGradient>
<radialGradient id="paint47_radial_1_7" cx="0" cy="0" r="1" gradientUnits="userSpaceOnUse" gradientTransform="translate(57.486 143.511) rotate(-103.33) scale(53.3405 29.9187)">
<stop offset="0.323" stop-color="#FDE280"/>
<stop offset="1" stop-color="#FFF2C4" stop-opacity="0"/>
</radialGradient>
<linearGradient id="paint48_linear_1_7" x1="59.3603" y1="118.849" x2="62.5061" y2="98.0913" gradientUnits="userSpaceOnUse">
<stop stop-color="white"/>
<stop offset="1" stop-color="white" stop-opacity="0"/>
</linearGradient>
<linearGradient id="paint49_linear_1_7" x1="58.8176" y1="89.8153" x2="65.1385" y2="107.245" gradientUnits="userSpaceOnUse">
<stop stop-color="#7B0C3B"/>
<stop offset="0.505" stop-color="#BA4D4D" stop-opacity="0.29"/>
<stop offset="1" stop-color="#CCB375" stop-opacity="0"/>
</linearGradient>
<clipPath id="clip0_1_7">
<rect width="228.223" height="113.401" fill="white" transform="translate(0.494339 47.5509) rotate(-14.0342)"/>
</clipPath>
</defs>
</svg>
