<svg width="24" height="25" viewBox="0 0 24 25" fill="none" xmlns="http://www.w3.org/2000/svg">
<path d="M23 10.5C23 9.96957 22.7893 9.46086 22.4142 9.08579C22.0391 8.71071 21.5304 8.5 21 8.5H14.68L15.64 3.93C15.66 3.83 15.67 3.72 15.67 3.61C15.67 3.2 15.5 2.82 15.23 2.55L14.17 1.5L7.59 8.08C7.22 8.45 7 8.95 7 9.5V19.5C7 20.0304 7.21071 20.5391 7.58579 20.9142C7.96086 21.2893 8.46957 21.5 9 21.5H18C18.83 21.5 19.54 21 19.84 20.28L22.86 13.23C22.95 13 23 12.76 23 12.5V10.5ZM1 21.5H5V9.5H1V21.5Z" fill="#B61116"/>
</svg>
