<svg width="35" height="35" viewBox="0 0 35 35" fill="none" xmlns="http://www.w3.org/2000/svg">
<g clip-path="url(#clip0_7_182)">
<g opacity="0.2">
<path fill-rule="evenodd" clip-rule="evenodd" d="M10.715 18.9087C9.76563 20.3329 9.25902 22.0062 9.25903 23.7177V24.9375C9.25903 25.4016 9.07466 25.8467 8.74647 26.1749C8.41828 26.5031 7.97316 26.6875 7.50903 26.6875C7.0449 26.6875 6.59979 26.5031 6.2716 26.1749C5.94341 25.8467 5.75903 25.4016 5.75903 24.9375V23.7177C5.75903 21.315 6.46953 18.9665 7.80303 16.9662L10.715 18.9087Z" fill="#D9A249"/>
<path fill-rule="evenodd" clip-rule="evenodd" d="M14.1625 17.0625C12.7765 17.0625 11.4832 17.7555 10.715 18.9088L7.80298 16.9662C8.50108 15.9194 9.44676 15.061 10.5561 14.4673C11.6655 13.8735 12.9042 13.5628 14.1625 13.5625H14.509C14.9731 13.5625 15.4182 13.7469 15.7464 14.0751C16.0746 14.4033 16.259 14.8484 16.259 15.3125C16.259 15.7766 16.0746 16.2217 15.7464 16.5499C15.4182 16.8781 14.9731 17.0625 14.509 17.0625H14.1625ZM18.0335 18.9088C18.982 20.3315 19.4895 22.0063 19.4895 23.7178V24.9375C19.4895 25.4016 19.6739 25.8467 20.002 26.1749C20.3302 26.5031 20.7753 26.6875 21.2395 26.6875C21.7036 26.6875 22.1487 26.5031 22.4769 26.1749C22.8051 25.8467 22.9895 25.4016 22.9895 24.9375V23.7178C22.9895 21.3148 22.2783 18.9656 20.9455 16.9662L18.0335 18.9088Z" fill="#D9A249"/>
<path fill-rule="evenodd" clip-rule="evenodd" d="M14.5843 17.0625C15.9703 17.0625 17.2635 17.7555 18.0318 18.9088L20.9455 16.9662C20.2473 15.9191 19.3014 15.0605 18.1917 14.4667C17.082 13.8729 15.8428 13.5623 14.5843 13.5625H14.2395C13.7754 13.5625 13.3303 13.7469 13.0021 14.0751C12.6739 14.4033 12.4895 14.8484 12.4895 15.3125C12.4895 15.7766 12.6739 16.2217 13.0021 16.5499C13.3303 16.8781 13.7754 17.0625 14.2395 17.0625H14.5843ZM6.802 25.8125C6.802 25.5804 6.89419 25.3579 7.05828 25.1938C7.22238 25.0297 7.44494 24.9375 7.677 24.9375H19.927C20.1591 24.9375 20.3816 25.0297 20.5457 25.1938C20.7098 25.3579 20.802 25.5804 20.802 25.8125C20.802 26.0446 20.7098 26.2671 20.5457 26.4312C20.3816 26.5953 20.1591 26.6875 19.927 26.6875H7.677C7.44494 26.6875 7.22238 26.5953 7.05828 26.4312C6.89419 26.2671 6.802 26.0446 6.802 25.8125Z" fill="#D9A249"/>
<path d="M19.927 10.0625C19.927 11.5709 19.3278 13.0176 18.2612 14.0842C17.1946 15.1508 15.7479 15.75 14.2395 15.75C12.7311 15.75 11.2844 15.1508 10.2178 14.0842C9.15122 13.0176 8.552 11.5709 8.552 10.0625C8.552 8.55408 9.15122 7.10744 10.2178 6.04083C11.2844 4.97422 12.7311 4.375 14.2395 4.375C15.7479 4.375 17.1946 4.97422 18.2612 6.04083C19.3278 7.10744 19.927 8.55408 19.927 10.0625Z" fill="#D9A249"/>
<path fill-rule="evenodd" clip-rule="evenodd" d="M14.2395 12.25C14.8197 12.25 15.3761 12.0195 15.7863 11.6093C16.1965 11.1991 16.427 10.6427 16.427 10.0625C16.427 9.48234 16.1965 8.92594 15.7863 8.5157C15.3761 8.10547 14.8197 7.875 14.2395 7.875C13.6593 7.875 13.1029 8.10547 12.6927 8.5157C12.2825 8.92594 12.052 9.48234 12.052 10.0625C12.052 10.6427 12.2825 11.1991 12.6927 11.6093C13.1029 12.0195 13.6593 12.25 14.2395 12.25ZM14.2395 15.75C15.7479 15.75 17.1946 15.1508 18.2612 14.0842C19.3278 13.0176 19.927 11.5709 19.927 10.0625C19.927 8.55408 19.3278 7.10744 18.2612 6.04083C17.1946 4.97422 15.7479 4.375 14.2395 4.375C12.7311 4.375 11.2844 4.97422 10.2178 6.04083C9.15122 7.10744 8.552 8.55408 8.552 10.0625C8.552 11.5709 9.15122 13.0176 10.2178 14.0842C11.2844 15.1508 12.7311 15.75 14.2395 15.75Z" fill="#D9A249"/>
<path d="M8.552 17.0625H19.927V25.8125H8.552V17.0625Z" fill="#D9A249"/>
<path fill-rule="evenodd" clip-rule="evenodd" d="M23.4025 24.5963C22.4531 26.0204 21.9465 27.6937 21.9465 29.4052V30.625C21.9465 31.0891 21.7622 31.5342 21.434 31.8624C21.1058 32.1906 20.6607 32.375 20.1965 32.375C19.7324 32.375 19.2873 32.1906 18.9591 31.8624C18.6309 31.5342 18.4465 31.0891 18.4465 30.625V29.4052C18.4465 27.0025 19.157 24.654 20.4905 22.6537L23.4025 24.5963ZM26.85 22.75C25.4658 22.75 24.1708 23.443 23.4025 24.5963L20.4905 22.6537C21.1886 21.6069 22.1343 20.7485 23.2437 20.1548C24.353 19.561 25.5918 19.2503 26.85 19.25H27.1965C27.6607 19.25 28.1058 19.4344 28.434 19.7626C28.7622 20.0908 28.9465 20.5359 28.9465 21C28.9465 21.4641 28.7622 21.9092 28.434 22.2374C28.1058 22.5656 27.6607 22.75 27.1965 22.75H26.85ZM30.721 24.5963C31.6695 26.019 32.177 27.6937 32.177 29.4052V30.625C32.177 31.0891 32.3614 31.5342 32.6896 31.8624C33.0178 32.1906 33.4629 32.375 33.927 32.375C34.3912 32.375 34.8363 32.1906 35.1645 31.8624C35.4927 31.5342 35.677 31.0891 35.677 30.625V29.4052C35.6771 27.0023 34.9659 24.6531 33.633 22.6537L30.721 24.5963Z" fill="#D9A249"/>
<path fill-rule="evenodd" clip-rule="evenodd" d="M27.2718 22.75C28.6578 22.75 29.9528 23.443 30.7193 24.5963L33.633 22.6537C32.9347 21.6067 31.9888 20.7481 30.8791 20.1544C29.7694 19.5606 28.5303 19.25 27.2718 19.25H26.927C26.4629 19.25 26.0178 19.4344 25.6896 19.7626C25.3614 20.0908 25.177 20.5359 25.177 21C25.177 21.4641 25.3614 21.9092 25.6896 22.2374C26.0178 22.5656 26.4629 22.75 26.927 22.75H27.2718ZM19.052 31.5C19.052 31.2679 19.1442 31.0454 19.3083 30.8813C19.4724 30.7172 19.6949 30.625 19.927 30.625H33.927C34.1591 30.625 34.3816 30.7172 34.5457 30.8813C34.7098 31.0454 34.802 31.2679 34.802 31.5C34.802 31.7321 34.7098 31.9546 34.5457 32.1187C34.3816 32.2828 34.1591 32.375 33.927 32.375H19.927C19.6949 32.375 19.4724 32.2828 19.3083 32.1187C19.1442 31.9546 19.052 31.7321 19.052 31.5Z" fill="#D9A249"/>
<path d="M32.6145 15.75C32.6145 17.2584 32.0153 18.7051 30.9487 19.7717C29.8821 20.8383 28.4354 21.4375 26.927 21.4375C25.4186 21.4375 23.9719 20.8383 22.9053 19.7717C21.8387 18.7051 21.2395 17.2584 21.2395 15.75C21.2395 14.2416 21.8387 12.7949 22.9053 11.7283C23.9719 10.6617 25.4186 10.0625 26.927 10.0625C28.4354 10.0625 29.8821 10.6617 30.9487 11.7283C32.0153 12.7949 32.6145 14.2416 32.6145 15.75Z" fill="#D9A249"/>
<path fill-rule="evenodd" clip-rule="evenodd" d="M26.927 17.9375C27.5072 17.9375 28.0636 17.707 28.4738 17.2968C28.884 16.8866 29.1145 16.3302 29.1145 15.75C29.1145 15.1698 28.884 14.6134 28.4738 14.2032C28.0636 13.793 27.5072 13.5625 26.927 13.5625C26.3468 13.5625 25.7904 13.793 25.3802 14.2032C24.97 14.6134 24.7395 15.1698 24.7395 15.75C24.7395 16.3302 24.97 16.8866 25.3802 17.2968C25.7904 17.707 26.3468 17.9375 26.927 17.9375ZM26.927 21.4375C28.4354 21.4375 29.8821 20.8383 30.9487 19.7717C32.0153 18.7051 32.6145 17.2584 32.6145 15.75C32.6145 14.2416 32.0153 12.7949 30.9487 11.7283C29.8821 10.6617 28.4354 10.0625 26.927 10.0625C25.4186 10.0625 23.9719 10.6617 22.9053 11.7283C21.8387 12.7949 21.2395 14.2416 21.2395 15.75C21.2395 17.2584 21.8387 18.7051 22.9053 19.7717C23.9719 20.8383 25.4186 21.4375 26.927 21.4375Z" fill="#D9A249"/>
<path d="M20.802 22.3125H32.177V31.0625H20.802V22.3125Z" fill="#D9A249"/>
</g>
<path fill-rule="evenodd" clip-rule="evenodd" d="M5.8799 17.4597C4.82658 19.0405 4.26457 20.8976 4.26465 22.7972V24.5C4.26465 24.732 4.17246 24.9546 4.00837 25.1187C3.84427 25.2828 3.62171 25.375 3.38965 25.375C3.15758 25.375 2.93502 25.2828 2.77093 25.1187C2.60684 24.9546 2.51465 24.732 2.51465 24.5V22.799C2.51518 20.5528 3.18073 18.357 4.4274 16.4885L4.6164 16.205C4.68017 16.1094 4.76215 16.0273 4.85765 15.9633C4.95316 15.8994 5.06032 15.8549 5.17301 15.8324C5.28571 15.8099 5.40173 15.8098 5.51446 15.8322C5.62719 15.8545 5.73442 15.8988 5.83002 15.9626C5.92563 16.0264 6.00773 16.1084 6.07165 16.2039C6.13557 16.2994 6.18005 16.4065 6.20256 16.5192C6.22507 16.6319 6.22516 16.7479 6.20282 16.8607C6.18049 16.9734 6.13617 17.0806 6.0724 17.1762L5.8834 17.4597H5.8799Z" fill="#D9A249"/>
<path fill-rule="evenodd" clip-rule="evenodd" d="M10.815 14.6387C8.9075 14.6387 7.12775 15.5907 6.07075 17.1762L4.61475 16.2067C5.29509 15.1863 6.21679 14.3495 7.29807 13.7707C8.37936 13.1919 9.58679 12.889 10.8132 12.8887H11.1982C11.4303 12.8887 11.6529 12.9809 11.817 13.145C11.9811 13.3091 12.0732 13.5317 12.0732 13.7637C12.0732 13.9958 11.9811 14.2184 11.817 14.3825C11.6529 14.5465 11.4303 14.6387 11.1982 14.6387H10.815ZM16.2015 17.4387C17.024 18.6742 17.4632 20.1232 17.4632 21.6072H19.2132C19.2136 19.7785 18.6723 17.9906 17.6575 16.4692L17.4825 16.2067C17.4205 16.1074 17.3392 16.0216 17.2434 15.9543C17.1477 15.8869 17.0393 15.8395 16.9249 15.8148C16.8105 15.7901 16.6923 15.7886 16.5772 15.8104C16.4622 15.8323 16.3528 15.8769 16.2553 15.9418C16.1579 16.0067 16.0744 16.0905 16.01 16.1882C15.9455 16.2859 15.9013 16.3955 15.8799 16.5106C15.8586 16.6258 15.8606 16.744 15.8857 16.8583C15.9109 16.9726 15.9588 17.0807 16.0265 17.1762L16.2015 17.4387Z" fill="#D9A249"/>
<path fill-rule="evenodd" clip-rule="evenodd" d="M11.2839 14.6387C13.1897 14.6387 14.9694 15.5907 16.0264 17.1762L17.4824 16.2067C16.8021 15.1863 15.8804 14.3495 14.7991 13.7707C13.7178 13.1919 12.5104 12.889 11.2839 12.8887H10.8989C10.784 12.8887 10.6702 12.9114 10.5641 12.9553C10.4579 12.9993 10.3615 13.0638 10.2802 13.145C10.199 13.2263 10.1345 13.3227 10.0905 13.4289C10.0466 13.535 10.0239 13.6488 10.0239 13.7637C10.0239 13.8786 10.0466 13.9924 10.0905 14.0986C10.1345 14.2047 10.199 14.3012 10.2802 14.3825C10.3615 14.4637 10.4579 14.5282 10.5641 14.5721C10.6702 14.6161 10.784 14.6387 10.8989 14.6387H11.2839Z" fill="#D9A249"/>
<path fill-rule="evenodd" clip-rule="evenodd" d="M10.9375 12.6875C11.4546 12.6875 11.9666 12.5857 12.4443 12.3878C12.922 12.1899 13.3561 11.8999 13.7217 11.5342C14.0874 11.1686 14.3774 10.7345 14.5753 10.2568C14.7732 9.7791 14.875 9.26708 14.875 8.75C14.875 8.23292 14.7732 7.7209 14.5753 7.24318C14.3774 6.76546 14.0874 6.3314 13.7217 5.96577C13.3561 5.60014 12.922 5.3101 12.4443 5.11222C11.9666 4.91435 11.4546 4.8125 10.9375 4.8125C9.89321 4.8125 8.89169 5.22734 8.15327 5.96577C7.41484 6.70419 7 7.70571 7 8.75C7 9.79429 7.41484 10.7958 8.15327 11.5342C8.89169 12.2727 9.89321 12.6875 10.9375 12.6875ZM10.9375 14.4375C12.4459 14.4375 13.8926 13.8383 14.9592 12.7717C16.0258 11.7051 16.625 10.2584 16.625 8.75C16.625 7.24158 16.0258 5.79494 14.9592 4.72833C13.8926 3.66172 12.4459 3.0625 10.9375 3.0625C9.42908 3.0625 7.98244 3.66172 6.91583 4.72833C5.84922 5.79494 5.25 7.24158 5.25 8.75C5.25 10.2584 5.84922 11.7051 6.91583 12.7717C7.98244 13.8383 9.42908 14.4375 10.9375 14.4375ZM18.389 23.0755C17.3353 24.6568 16.7733 26.5146 16.7738 28.4147V30.2243C16.7738 30.4563 16.6816 30.6789 16.5175 30.843C16.3534 31.0071 16.1308 31.0993 15.8988 31.0993C15.6667 31.0993 15.4441 31.0071 15.28 30.843C15.1159 30.6789 15.0238 30.4563 15.0238 30.2243V28.4147C15.0236 26.1695 15.6879 23.9744 16.933 22.106L17.1658 21.756C17.2948 21.5629 17.4952 21.429 17.723 21.3837C17.9507 21.3384 18.1872 21.3855 18.3803 21.5145C18.5733 21.6435 18.7072 21.844 18.7525 22.0717C18.7978 22.2995 18.7508 22.5359 18.6217 22.729L18.389 23.0755Z" fill="#D9A249"/>
<path fill-rule="evenodd" clip-rule="evenodd" d="M23.4848 20.125C22.5221 20.1249 21.5744 20.3625 20.7256 20.8168C19.8769 21.271 19.1536 21.9279 18.6198 22.729L17.1655 21.7577C17.859 20.7173 18.7986 19.8641 19.901 19.274C21.0034 18.6839 22.2344 18.3751 23.4848 18.375H23.8768C24.1088 18.375 24.3314 18.4672 24.4955 18.6313C24.6596 18.7954 24.7518 19.0179 24.7518 19.25C24.7518 19.4821 24.6596 19.7046 24.4955 19.8687C24.3314 20.0328 24.1088 20.125 23.8768 20.125H23.4848ZM29.062 23.0755C30.1163 24.6566 30.6789 26.5144 30.679 28.4147V30.2242C30.679 30.4563 30.7712 30.6789 30.9353 30.843C31.0994 31.0071 31.322 31.0992 31.554 31.0992C31.7861 31.0992 32.0087 31.0071 32.1727 30.843C32.3368 30.6789 32.429 30.4563 32.429 30.2242V28.4147C32.4287 26.1693 31.7637 23.9742 30.518 22.106L30.2853 21.756C30.1562 21.5629 29.9558 21.429 29.728 21.3837C29.5003 21.3384 29.2639 21.3855 29.0708 21.5145C28.8777 21.6435 28.7438 21.844 28.6985 22.0717C28.6532 22.2995 28.7003 22.5359 28.8293 22.729L29.062 23.0755Z" fill="#D9A249"/>
<path fill-rule="evenodd" clip-rule="evenodd" d="M23.9663 20.125C24.9289 20.1249 25.8767 20.3625 26.7254 20.8168C27.5741 21.271 28.2975 21.9279 28.8313 22.729L30.2873 21.7577C29.5936 20.717 28.6537 19.8637 27.551 19.2736C26.4483 18.6835 25.2169 18.3748 23.9663 18.375H23.5725C23.3404 18.375 23.1179 18.4672 22.9538 18.6313C22.7897 18.7954 22.6975 19.0179 22.6975 19.25C22.6975 19.4821 22.7897 19.7046 22.9538 19.8687C23.1179 20.0328 23.3404 20.125 23.5725 20.125H23.9663Z" fill="#D9A249"/>
<path fill-rule="evenodd" clip-rule="evenodd" d="M23.625 18.375C24.1421 18.375 24.6541 18.2732 25.1318 18.0753C25.6095 17.8774 26.0436 17.5874 26.4092 17.2217C26.7749 16.8561 27.0649 16.422 27.2628 15.9443C27.4607 15.4666 27.5625 14.9546 27.5625 14.4375C27.5625 13.9204 27.4607 13.4084 27.2628 12.9307C27.0649 12.453 26.7749 12.0189 26.4092 11.6533C26.0436 11.2876 25.6095 10.9976 25.1318 10.7997C24.6541 10.6018 24.1421 10.5 23.625 10.5C22.5807 10.5 21.5792 10.9148 20.8408 11.6533C20.1023 12.3917 19.6875 13.3932 19.6875 14.4375C19.6875 15.4818 20.1023 16.4833 20.8408 17.2217C21.5792 17.9602 22.5807 18.375 23.625 18.375ZM23.625 20.125C25.1334 20.125 26.5801 19.5258 27.6467 18.4592C28.7133 17.3926 29.3125 15.9459 29.3125 14.4375C29.3125 12.9291 28.7133 11.4824 27.6467 10.4158C26.5801 9.34922 25.1334 8.75 23.625 8.75C22.1166 8.75 20.6699 9.34922 19.6033 10.4158C18.5367 11.4824 17.9375 12.9291 17.9375 14.4375C17.9375 15.9459 18.5367 17.3926 19.6033 18.4592C20.6699 19.5258 22.1166 20.125 23.625 20.125Z" fill="#D9A249"/>
</g>
<defs>
<clipPath id="clip0_7_182">
<rect width="35" height="35" fill="white"/>
</clipPath>
</defs>
</svg>
