<svg width="42" height="42" viewBox="0 0 42 42" fill="none" xmlns="http://www.w3.org/2000/svg">
<circle cx="21" cy="21" r="20.5" transform="rotate(-90 21 21)" stroke="#D1D4D9"/>
<path d="M15 20.5C14.7239 20.5 14.5 20.7239 14.5 21C14.5 21.2761 14.7239 21.5 15 21.5V20.5ZM30.3536 21.3536C30.5488 21.1583 30.5488 20.8417 30.3536 20.6464L27.1716 17.4645C26.9763 17.2692 26.6597 17.2692 26.4645 17.4645C26.2692 17.6597 26.2692 17.9763 26.4645 18.1716L29.2929 21L26.4645 23.8284C26.2692 24.0237 26.2692 24.3403 26.4645 24.5355C26.6597 24.7308 26.9763 24.7308 27.1716 24.5355L30.3536 21.3536ZM15 21.5H30V20.5H15V21.5Z" fill="#D1D4D9"/>
</svg>
